<?xml version="1.0" encoding="utf-8"?>
<!-- Generator: Adobe Illustrator 23.0.1, SVG Export Plug-In . SVG Version: 6.00 Build 0)  -->
<svg version="1.1" id="Layer_1" xmlns="http://www.w3.org/2000/svg" xmlns:xlink="http://www.w3.org/1999/xlink" x="0px" y="0px"
	 viewBox="0 0 275.8 66.8" style="enable-background:new 0 0 275.8 66.8;" xml:space="preserve">
<style type="text/css">
	.st0{fill:#FFFFFF;}
</style>
<path class="st0" d="M275.8,27.8c-1.6,0.5-3.1,1.2-4.7,1.4c-3.7,0.5-7.5,0.7-11.2,1.1c-1,0.1-1.9,0.5-2.9,0.7c0,0.2,0,0.4-0.1,0.6
	c1.9,0.4,3.8,0.9,5.8,1.1c2.3,0.3,4.7,0.4,6.9,0.8c3.2,0.6,5,2.4,5.4,5c0.5,3.2-0.7,5.6-3.5,7.2c-4.6,2.7-12.1,1.7-15.9-2
	c-1.2-1.1-1.7-2.5-1.3-4c0.4-1.6,1.6-2.2,3.1-2.7c2.7-0.8,9.2,0,11.9,2.3c-1.1,0.5-1.9,1.3-2.8,1.3c-1.6,0.1-3.2-0.3-4.7-0.5
	c-1.5-0.2-2.9-0.7-4.4-0.7c-0.5,0-1.3,0.7-1.4,1.2c-0.1,0.4,0.6,1.3,1.1,1.5c1.3,0.3,2.6,0.6,3.9,0.4c2.9-0.4,5.9-1,8.8-1.7
	c0.8-0.2,1.3-1.2,2-1.8c-0.7-0.6-1.2-1.6-2-1.8c-2.4-0.7-4.9-1.1-7.4-1.4c-1.9-0.3-4-0.2-5.9-0.5c-3.3-0.5-4.5-3.5-2.4-6.1
	c0.7-0.9,1.9-1.7,3-2.2c5.9-2.5,11.9-2.3,17.9-0.8c0.3,0.1,0.6,0.4,0.9,0.6C275.8,27.1,275.8,27.4,275.8,27.8z"/>
<path class="st0" d="M42.2,37.2c1.2-1,2.3-1.8,3.7-2.9C40.7,32,35.8,31.2,30.6,31c-0.1,0.4-0.2,0.7-0.2,1.1c0,4.1,0.1,8.1,0.1,12.2
	c0,1,0.3,1.6,1.3,1.7c7.4,1,14.6,0.8,21.3-2.9c5-2.7,6.6-7.8,4.7-13.5c-1.1-3.4-3.1-6.3-5.7-8.6C38.5,9.3,22.8,3.8,4.7,5.9
	C4,5.9,3.3,6.2,2.3,6.4c1.2,0.5,2.1,1,3.3,1.5C3.6,9.1,2,9,0.5,8.3C0.2,8.1-0.1,7.3,0,6.8c0.5-2.2,1.9-3.6,4.2-4.2
	c7.5-1.9,15.1-1.8,22.6,0c11.2,2.7,21.3,7.5,29.7,15.6c3.9,3.7,7.1,7.9,8.1,13.5c0.7,3.7-0.2,7-2.3,10C58,47.5,52,50.1,45.2,51.2
	c-4.3,0.6-8.6,0.3-12.8-0.6c-0.5-0.1-1-0.1-1.2-0.2c-0.8,1.1-1.2,2.3-2,2.8c-2,1.1-3.6,0.4-4-1.9c-0.4-2.8-2.2-3.9-4.3-5.3
	c-3-1.9-5.6-4.2-8.4-6.5c-0.9-0.7-1.6-1.8-2.2-2.8c-1.3-2.1-1.2-4,0.9-5.3c2.7-1.6,5.6-2.8,8.6-3.9c1.5-0.6,3.8-0.3,4.7-1.3
	c0.9-1,0.6-3.2,0.8-4.8c0.7-5,0.7-5,1.9-6.4c2.1,0.4,2.8,2.1,3,4c0.3,2.3,0.4,4.5,0.5,6.9c2.6,0.2,5.2,0.3,7.8,0.5
	c3.6,0.3,7,1.3,9.8,3.6c2.1,1.7,2.4,3.9,0.9,5.9C47.3,38.2,44.9,38.8,42.2,37.2z M24.3,43.7c0-4.3,0-8.3,0-12.7
	c-4.1,0.9-8,1.6-11.9,2.6c-1.8,0.5-1.8,1.1-0.6,2.5C15,39.9,19.2,42.2,24.3,43.7z"/>
<path class="st0" d="M175.2,33.5c0,4.3-0.1,8.4,0,12.4c0,1.5-0.3,2.7-1.4,3.7c-1.6,1.4-3,1-3.4-1.1c-0.4-1.8-0.6-3.7-0.6-5.5
	c-0.1-2.9,0.1-5.9,0.2-8.8c0.1-1.3-0.3-1.9-1.6-2.6c-2.1-1.1-4.3-2.5-6-4.1c-2.6-2.5-2.2-6.3,0.8-8.3c1.5-1,3.3-1.6,5.1-2.2
	c1-0.3,1.4-0.7,1.4-1.8c0-1.5,0-3,0.4-4.5c0.3-1.3,1-2.6,1.7-4.1c2,1.9,2.3,4,2.5,6.1c0.1,1.2-0.2,2.7,0.5,3.5
	c0.6,0.7,2.2,0.5,3.3,0.8c2.6,0.5,4.1,2,4,4.1c0,1.1-0.4,2-1.7,2.1c-0.5-2.3-2-3-5.4-2.5c0,2.6,0,5.2,0,8.1c1.9,0,3.8,0.3,5.5-0.1
	c3.4-0.8,6.9-1.6,10-3.1c3.5-1.6,4.3-4.5,3.2-8.2c-0.9-2.9-2.8-5-5.2-6.7c-6-4.2-12.8-6.2-20-6.4c-2.3-0.1-4.5,0.1-6.8,0.2
	c-0.4,0-0.8,0-1.6-0.1c0.6-0.7,1-1.2,1.4-1.6c2.7-2.1,5.9-3,9.2-2.9c9,0.1,17,2.8,23.6,9c1.6,1.5,3,3.4,4.1,5.4
	c2.7,5.2,1.7,10-2.9,13.6c-5.3,4.3-11.6,5.8-18.3,5.6C176.5,33.6,175.8,33.6,175.2,33.5z M169.7,20.3c-1.7,0.4-3.3,0.5-4.7,1.1
	c-1.8,0.7-2.1,2.5-0.5,3.7c1.5,1.1,3.4,1.7,5.3,2.7C169.7,25,169.7,22.9,169.7,20.3z"/>
<path class="st0" d="M146,24.5c0,3.2-1.4,5.3-2.5,7.5c-1,2.2-1.8,4.4-2.4,6.7c2.5-2.7,5-5.4,7.6-8c1.2-1.2,2.6-2.1,4-3.1
	c1.7-1.1,2.9-1,4.3,0.5c2.6,2.8,2.9,6,1.8,9.5c-2.1,6.2-8.3,10.7-15.5,10.8c-1.6,6-3.3,12.2-4.9,18.3c-2.8-0.5-4.4-2.5-4.2-5.4
	c0.4-5.5,2-10.8,3.8-16c0.3-0.8,0.3-1.9,0-2.7c-0.9-2.8-1-5.6,0.3-8c1.7-3.1,3.8-6,5.8-9C144.4,25.3,145.1,25.1,146,24.5z
	 M146.6,42.7c4.1-0.5,6.7-2.6,8.6-5.5c1.2-1.8,1.2-3.9,0.2-6.1C151.7,34.4,149,38.1,146.6,42.7z"/>
<path class="st0" d="M78.6,32.2c2.2,0.3,4.4,0.6,6.6,1c2.5,0.4,5.1,0.7,7.6,1.3c2.2,0.6,3.5,2.1,3.8,4.5c0.3,2.6-0.1,4.9-2.5,6.5
	c-4.3,2.9-11.9,2.8-15.9-0.4c-0.7-0.6-1.3-1.2-1.9-1.9c-1.5-1.9-0.9-4.4,1.4-5.3c1.4-0.5,2.9-0.9,4.4-0.8c2.3,0.2,4.6,0.7,6.9,1.2
	c0.6,0.1,1.2,0.6,1.8,1c-1.6,1.9-4.1,2.5-6.5,1.7c-1-0.3-1.9-0.8-2.9-1.1c-0.7-0.2-1.6-0.4-2.3-0.2c-0.6,0.2-1.1,1-1.6,1.5
	c0.5,0.4,1,1.1,1.6,1.2c4.6,1,9-0.1,13.2-2c1.3-0.6,1.3-1.7,0-2.2c-2.5-0.9-5.2-1.6-7.9-2.1c-2-0.4-4.1-0.3-6.1-0.4
	c-1.6-0.1-3.4-0.3-3.8-2.3c-0.4-2,0.2-3.6,2-4.8c4.4-3.1,9.3-3.6,14.4-3.2c1.4,0.1,2.9,0.3,4.3,0.6c0.8,0.2,1.5,0.9,2.2,1.4
	c-0.7,0.6-1.3,1.6-2.1,1.7c-3.1,0.5-6.2,0.7-9.3,1.1c-2.4,0.3-4.8,0.7-7.2,1C78.6,31.6,78.6,31.9,78.6,32.2z"/>
<path class="st0" d="M205.3,41.8c-1.9,0-3.7-0.1-5.4,0.1c-0.6,0.1-1.3,0.8-1.6,1.4c-0.7,1.6-1.1,3.4-1.9,5c-0.3,0.6-1.3,1.4-1.9,1.4
	c-0.8,0-1.8-0.7-2.2-1.3c-1.1-2-0.3-4.1,0.5-6c0.7-1.6,1.5-3.1-0.8-4.1c-0.2-0.1-0.2-0.7-0.3-1.4c3.3,1.2,3.8-1.2,4.9-3.1
	c2.1-3.6,4.5-7.2,6.8-10.7c0.2-0.3,1-0.6,1.4-0.5c0.6,0.3,1.4,0.9,1.6,1.5c0.8,2.7,1.7,5.4,2.1,8.1c0.6,4.9,0.9,9.8,1.2,14.6
	c0,0.7-0.5,1.5-0.7,2.2c-0.8-0.5-1.7-0.8-2.3-1.4c-0.5-0.6-0.8-1.6-0.9-2.4C205.4,44,205.4,43,205.3,41.8z M204.2,31.2
	c-0.2-0.1-0.5-0.2-0.7-0.2c-0.8,1.8-1.6,3.6-2.6,5.6c1.4,0,2.5,0,3.9,0C204.6,34.6,204.4,32.9,204.2,31.2z"/>
<path class="st0" d="M112.6,39.5c-0.2-1.6-0.2-3.3-0.5-4.8c-0.7-3.4-1.7-6.7-2.5-10.1c-0.2-0.8-0.2-1.6-0.3-2.4
	c0.2-0.1,0.3-0.3,0.5-0.4c0.8,0.6,1.8,1,2.4,1.7c4.5,5.6,6.1,12,4.2,19c-0.3,1.1-1.2,2.1-2.1,2.8c-1.8,1.5-3.6,1.2-4.9-0.8
	c-1.9-2.9-3.6-5.9-5.3-8.9c-0.3-0.4-0.5-0.9-1.2-1.3c0,0.6-0.1,1.2-0.1,1.8c-0.3,3.2-0.5,6.4-0.9,9.6c-0.1,0.6-0.7,1.5-1.2,1.5
	c-0.6,0.1-1.6-0.3-2-0.8c-0.6-0.8-1-1.9-1.1-2.9c0-5.1,0.5-10.2,2.6-14.9c1-2.3,1.8-2.5,3.4-0.5c1.8,2.2,3.4,4.6,5.1,6.9
	c1.1,1.5,2.1,3,3.1,4.5C112.2,39.7,112.4,39.6,112.6,39.5z"/>
<path class="st0" d="M123.1,30.6c-1.7-0.8-3.8-0.6-3.9-3.3c1.2-0.2,2.5-0.5,3.8-0.6c3.1-0.4,6.2-0.8,9.3-1.2
	c2.1-0.2,3.6,0.6,4.7,2.3c0.9,1.5,0.7,2.3-1,2.6c-2,0.4-4.2,0.4-6.2,0.5c-2.6,0.1-2.7,0.2-3,3.2c1.7,0,3.5,0,5.2,0
	c1.1,0,1.8,0.5,1.8,1.7c0,1.1-0.7,1.6-1.7,1.7c-1.4,0.2-2.7,0.3-4.1,0.3c-3.3,0.1-4,0.7-4.2,4.5c1.7-0.2,3.3-0.5,5-0.7
	c1.2-0.2,2.5-0.4,3.7-0.3c0.7,0.1,1.4,0.9,1.8,1.6c0.2,0.3-0.3,1.4-0.7,1.7c-2.7,1.4-5.3,3.2-8.1,4c-4.8,1.2-8.2-2.9-6.8-7.7
	c0.3-0.9,1-1.8,1-2.7c0-1.9,0.1-3.6,2.2-4.6C122.5,33.2,122.6,31.7,123.1,30.6z"/>
<path class="st0" d="M244,37.6c2,2.8,4.3,4.8,7.6,5.5c1.6,0.4,2.2,1.4,1.9,3c-0.3,1.2-1.6,2.1-3,1.8c-2.9-0.5-5.4-1.9-7.5-4
	c-1.1-1-2-2.1-3.1-3.3c0,1.7,0,3.3,0,4.9c0,2-0.4,2.5-2.4,2.6c-1.9,0.1-2.4-0.3-2.4-2.3c-0.2-6.3-0.3-12.7-0.4-19
	c0-0.5,0.3-1,0.6-1.4c1.6-1.6,3.2-1.3,3.7,0.8c0.5,1.8,0.5,3.8,0.7,5.7c0.1,0.6,0,1.3,0,2.1c2.8-0.6,4.9-1.9,6.6-3.8
	c1.1-1.3,2.2-2.7,3.2-4.1c0.5-0.6,0.8-1.8,1.9-0.9c0.9,0.7,2,1.5,1.2,2.8c-1.2,1.9-2.4,3.9-3.8,5.5C247.4,35,245.7,36.2,244,37.6z"
	/>
<path class="st0" d="M72.6,21.8c-1.1-0.1-1.8,0-2.4-0.3c-1-0.4-1.7-0.3-2.4,0.7c-0.9,1.2-2.2,0.7-2.7-0.9c-0.5-1.6-1.2-3.1-1.4-4.7
	c-0.2-1.3-0.2-2.8,0.3-4c1.9-4.5,8.5-8.2,13.4-7.7c0.5,0.1,1,0.1,1.4,0.3c1.8,0.9,3.7,1.8,5.4,3c1.6,1.1,2,3.3,0.8,5.2
	C82.1,18.2,77.8,21.2,72.6,21.8z M70.5,17.8c4.7,0.1,8.4-0.9,11.2-4.2c0.5-0.6,0.9-2.1,0.5-2.7c-0.4-0.6-1.9-0.9-2.7-0.7
	C75.6,11.3,73,14.2,70.5,17.8z M66.8,15.3c1.7-1.8,3.3-3.6,5.1-5.5C68.9,10.3,66.6,12.8,66.8,15.3z"/>
<path class="st0" d="M215.6,28.7c-1,0.2-2.1,0.1-2.3-1c-0.1-0.6,0.6-1.5,1.2-1.9c4-3.1,12.6-1.2,15.2,1.8c3,3.5,2.9,8.3-0.5,12.1
	c1.3,2.1,2.6,4.2,3.7,6.3c0.4,0.8,0.6,1.9,0.3,2.7c-0.4,1.6-2,1.7-2.9,0.4c-1.6-2.1-3.1-4.3-4.7-6.3c-0.4-0.5-1.2-0.6-1.9-0.7
	c-1-0.1-2,0.2-3,0.1c-1.8-0.1-3.1-1.4-3.1-3.1c0-1.9,1.5-2.5,2.9-2.6c1.7-0.2,3.4,0.2,5.3,0.3c2.1-2.2,1.8-5.4-0.9-7.1
	C221.9,28,218.8,27.3,215.6,28.7L215.6,28.7z M222.9,40.1c0-0.4,0-0.8,0-1.1c-0.8,0-1.7,0-2.5,0c-0.1,0-0.1,0.7-0.2,1.1
	C221.1,40.1,222,40.1,222.9,40.1z"/>
<path class="st0" d="M72.3,39.3c0,2.3,0,4.4,0,6.5c0,1,0,2.1-1.5,2.2c-1.4,0.1-2.7-0.1-3.3-1.5c-0.2-0.5-0.3-1.2-0.3-1.7
	c0.2-5.5,0.5-11,0.8-16.4c0.1-0.8,0.9-1.6,1.4-2.4c0.7,0.9,1.9,1.6,2.1,2.6c0.4,2,0.4,4.1,0.6,6.2C72.1,36.3,72.2,37.9,72.3,39.3z"
	/>
<path class="st0" d="M215.6,28.8c0.4,0,0.7,0.1,1.1,0.1c1.4,0,1.8,0.7,1.6,2.1c-0.7,4.7-1.2,9.5-1.7,14.2c-0.2,1.4,0.1,3.1-2.1,3
	c-1.7,0-3.1-1.5-2.9-3.4c0.3-3.4,0.8-6.9,1.2-10.3c0.1-0.9,0.5-1.8,0.7-2.8C213.7,30.4,214.3,29.4,215.6,28.8
	C215.6,28.7,215.6,28.8,215.6,28.8z"/>
</svg>
