<svg xmlns="http://www.w3.org/2000/svg" xmlns:xlink="http://www.w3.org/1999/xlink" viewBox="0 0 1199.61 109.86"><defs><style>.cls-1{fill:url(#linear-gradient);}.cls-2{fill:#fff;}.cls-3{fill:#1ce783;}.cls-4{fill:url(#radial-gradient);}.cls-5{fill:#fab200;}.cls-6{fill:url(#linear-gradient-2);}.cls-7{fill-rule:evenodd;fill:url(#linear-gradient-3);}</style><linearGradient id="linear-gradient" x1="212.58" y1="34.13" x2="294.62" y2="34.13" gradientUnits="userSpaceOnUse"><stop offset="0.3" stop-color="#fab200"/><stop offset="0.64" stop-color="#fa6033"/><stop offset="0.88" stop-color="#fa2a53"/><stop offset="1" stop-color="#fa1660"/></linearGradient><radialGradient id="radial-gradient" cx="640.71" cy="3818.59" r="149.26" gradientTransform="matrix(0.94, 0, 0, -0.94, 144.15, 3646.23)" gradientUnits="userSpaceOnUse"><stop offset="0.01" stop-color="#fff"/><stop offset="0.04" stop-color="#c6ffff"/><stop offset="0.09" stop-color="#80ffff"/><stop offset="0.13" stop-color="#49ffff"/><stop offset="0.17" stop-color="#21ffff"/><stop offset="0.2" stop-color="#09ffff"/><stop offset="0.22" stop-color="aqua"/><stop offset="0.28" stop-color="#01f6ff" stop-opacity="0.96"/><stop offset="0.39" stop-color="#04deff" stop-opacity="0.87"/><stop offset="0.53" stop-color="#08b6ff" stop-opacity="0.71"/><stop offset="0.66" stop-color="#0d8bff" stop-opacity="0.57"/><stop offset="0.69" stop-color="#0e7fff" stop-opacity="0.5"/><stop offset="0.87" stop-color="#1639ff" stop-opacity="0.22"/><stop offset="1" stop-color="#1c00ff" stop-opacity="0"/></radialGradient><linearGradient id="linear-gradient-2" x1="83.8" y1="34.13" x2="1.76" y2="34.13" gradientUnits="userSpaceOnUse"><stop offset="0" stop-color="#016cf9"/><stop offset="0.35" stop-color="#0b9bcb"/><stop offset="0.92" stop-color="#1ce783"/></linearGradient><linearGradient id="linear-gradient-3" x1="1101.26" y1="92.92" x2="1132.44" y2="61.74" gradientUnits="userSpaceOnUse"><stop offset="0.28" stop-color="#fa1660"/><stop offset="0.78" stop-color="#ff6e00"/></linearGradient></defs><g id="Layer_2" data-name="Layer 2"><g id="Logos"><rect class="cls-1" x="212.58" y="32.53" width="82.04" height="3.21"/><path class="cls-2" d="M21.9,71.82a13.73,13.73,0,0,0-3.27-1.92c-1.16-.48-2.36-.93-3.58-1.33s-2.35-.79-3.49-1.19A13.35,13.35,0,0,1,8.7,66a6.5,6.5,0,0,1-1.91-1.89,4.9,4.9,0,0,1-.68-2.71,6.54,6.54,0,0,1,.49-2.49A5.92,5.92,0,0,1,8,56.83a6.61,6.61,0,0,1,2.33-1.43,9.57,9.57,0,0,1,3.33-.53,9.34,9.34,0,0,1,3.18.46,10.89,10.89,0,0,1,2.18,1,11.3,11.3,0,0,1,1.37,1,2.28,2.28,0,0,0,1.5.73,1.62,1.62,0,0,0,1.49-.94h0L24,55.92a.88.88,0,0,0-.16-1,13.74,13.74,0,0,0-4.59-3.08,15.33,15.33,0,0,0-5.65-1,13.65,13.65,0,0,0-5,.88,11.39,11.39,0,0,0-3.75,2.37,10,10,0,0,0-2.33,3.44,10.67,10.67,0,0,0-.79,4A10,10,0,0,0,2.66,66a9.25,9.25,0,0,0,2.41,3,13.4,13.4,0,0,0,3.27,1.92c1.16.47,2.36.9,3.58,1.29s2.36.75,3.49,1.15a12.64,12.64,0,0,1,2.86,1.37,6.37,6.37,0,0,1,1.9,1.9,5.37,5.37,0,0,1,.68,2.85,8.7,8.7,0,0,1-.58,3.16,7.11,7.11,0,0,1-1.66,2.5,8.25,8.25,0,0,1-2.7,1.68,10.47,10.47,0,0,1-3.72.62,11.61,11.61,0,0,1-2.71-.29,12,12,0,0,1-2.13-.74,9.25,9.25,0,0,1-1.6-.94c-.48-.35-.89-.67-1.23-1l-.92-.8a1.84,1.84,0,0,0-1.2-.54A1.82,1.82,0,0,0,1,83.9L.89,84,.14,85.16a.9.9,0,0,0,.08,1.07,16.27,16.27,0,0,0,5,3.86,15.61,15.61,0,0,0,6.88,1.42,14.77,14.77,0,0,0,5.49-1,12.15,12.15,0,0,0,4.12-2.66,11.42,11.42,0,0,0,2.59-4,13.4,13.4,0,0,0,.88-4.83,9.33,9.33,0,0,0-.92-4.33A9.26,9.26,0,0,0,21.9,71.82Z"/><path class="cls-2" d="M60.45,51.23H30.85a.89.89,0,0,0-.89.89v2.34a.89.89,0,0,0,.89.89H43.41V90.19a.89.89,0,0,0,.89.89h2.78a.89.89,0,0,0,.89-.89V55.35H60.45a.89.89,0,0,0,.89-.89V52.12A.89.89,0,0,0,60.45,51.23Z"/><path class="cls-2" d="M81.75,73.24a15.92,15.92,0,0,0,3-.93,12.19,12.19,0,0,0,3.69-2.4,10.32,10.32,0,0,0,2.37-3.46,11.23,11.23,0,0,0,.82-4.32c0-3.56-1.22-6.31-3.61-8.17s-5.82-2.73-10.38-2.73H67.85a.89.89,0,0,0-.89.89V90.19a.89.89,0,0,0,.89.89h2.77a.89.89,0,0,0,.89-.89V73.86H75.6a6.25,6.25,0,0,1,.83,0,1.48,1.48,0,0,1,.44.11.82.82,0,0,1,.25.16,3.39,3.39,0,0,1,.34.39l0,0L89.67,90a2.48,2.48,0,0,0,.92.83,2.71,2.71,0,0,0,1.15.23h2.37a.89.89,0,0,0,.69-1.45Zm-10.24-18h6.08c3.17,0,5.6.6,7.2,1.79s2.29,2.88,2.29,5.31a7.67,7.67,0,0,1-.65,3.21,6.63,6.63,0,0,1-1.86,2.39,9,9,0,0,1-3.08,1.58,15.15,15.15,0,0,1-4.28.56h-5.7Z"/><path class="cls-2" d="M124.37,87H105.16V73.89H121a.89.89,0,0,0,.89-.89V70.77a.89.89,0,0,0-.89-.9H105.16V55.3h19.16a.89.89,0,0,0,.89-.89V52.12a.89.89,0,0,0-.89-.89H101.5a.89.89,0,0,0-.89.89V90.19a.89.89,0,0,0,.89.89h22.82a.89.89,0,0,0,.89-.87l.05-2.29a.89.89,0,0,0-.25-.64A.91.91,0,0,0,124.37,87Z"/><path class="cls-2" d="M140.79,75.47,148,57.62l7.19,17.85,1.55,3.83L161,89.81a2.09,2.09,0,0,0,.63.86,1.81,1.81,0,0,0,1.19.41h2.12a.89.89,0,0,0,.83-1.23L150.17,51.78a.9.9,0,0,0-.83-.55h-2.71a.91.91,0,0,0-.83.55L130.22,89.85a.89.89,0,0,0,.83,1.23h2.1a1.88,1.88,0,0,0,1.2-.41,2,2,0,0,0,.65-.89l4.24-10.48Z"/><rect class="cls-2" x="212.56" y="51.23" width="4.55" height="39.85" rx="0.89"/><path class="cls-2" d="M253.71,51.23h-2.4a.89.89,0,0,0-.89.89V82.8l-23-30.7a2.12,2.12,0,0,0-.78-.69,2.25,2.25,0,0,0-1-.18h-1.37a.89.89,0,0,0-.89.89V90.19a.89.89,0,0,0,.89.89h2.42a.89.89,0,0,0,.89-.89V59.4l23,30.78a2.49,2.49,0,0,0,.75.68,2.11,2.11,0,0,0,1,.22h1.29a.89.89,0,0,0,.89-.89V52.12A.89.89,0,0,0,253.71,51.23Z"/><path class="cls-2" d="M294.37,72h-10.5a.89.89,0,0,0-.89.89v1.5a1.46,1.46,0,0,0,.49,1.09,1.58,1.58,0,0,0,1.1.42H291v8.84c-.67.38-1.33.72-2,1a16.37,16.37,0,0,1-2.41.92,18.94,18.94,0,0,1-2.62.58,19.89,19.89,0,0,1-3,.21,18.51,18.51,0,0,1-6.65-1.13,13.7,13.7,0,0,1-4.94-3.2,14.06,14.06,0,0,1-3.11-5.12,20.66,20.66,0,0,1-1.09-6.91,20.26,20.26,0,0,1,1.09-6.83,14.35,14.35,0,0,1,3.06-5.06,13.4,13.4,0,0,1,4.8-3.18A17.39,17.39,0,0,1,280.51,55a18.19,18.19,0,0,1,4.52.48,16.76,16.76,0,0,1,3.11,1.1,11.58,11.58,0,0,1,1.91,1.13,5.94,5.94,0,0,0,1.35.87,1.66,1.66,0,0,0,2.25-.64l.74-1.18a.89.89,0,0,0-.16-1.15,21,21,0,0,0-2.76-2A17,17,0,0,0,288.35,52a20.27,20.27,0,0,0-3.59-.92,27.07,27.07,0,0,0-4.17-.3,22.3,22.3,0,0,0-8.26,1.45A17.7,17.7,0,0,0,266,56.38a18.08,18.08,0,0,0-4,6.45,25.42,25.42,0,0,0,0,16.64,18.13,18.13,0,0,0,4.11,6.47,18.56,18.56,0,0,0,6.46,4.13A23.42,23.42,0,0,0,281,91.51a22.85,22.85,0,0,0,13.86-4.33.89.89,0,0,0,.38-.73V72.92A.89.89,0,0,0,294.37,72Z"/><path class="cls-2" d="M145.15,79.63V72.16a.27.27,0,0,1,.42-.24l6.28,3.73a.27.27,0,0,1,0,.48l-6.28,3.74A.28.28,0,0,1,145.15,79.63Z"/><path class="cls-2" d="M205.31,51.23H203.4a2.36,2.36,0,0,0-.9.14,1.73,1.73,0,0,0-.88.79v0L188.31,75.1,175,52.18v0a1.73,1.73,0,0,0-.88-.79,2.36,2.36,0,0,0-.9-.14h-1.91a.89.89,0,0,0-.89.89V90.19a.89.89,0,0,0,.89.89h2.42a.89.89,0,0,0,.89-.89V59.68l11.92,20.64a2,2,0,0,0,3.54,0L202,59.68V90.19a.89.89,0,0,0,.89.89h2.42a.89.89,0,0,0,.89-.89V52.12A.89.89,0,0,0,205.31,51.23Z"/><path class="cls-2" d="M132.05,12.29s.48-.73.89-1.28A23.35,23.35,0,0,1,136,7.77c.31-.27.67-.56.67-.56s-.56,0-.88.12a6.76,6.76,0,0,0-2.44,1.37c-.92.79-1.94,2.07-1.48,3.21l.17.38m5.12,1.37a9.64,9.64,0,0,0,4.09-1.23c1.24-.69,3.08-2,2.89-3.65a1.37,1.37,0,0,0-.83-1.09,1.9,1.9,0,0,0-1.55,0,4.77,4.77,0,0,0-1.23.53,18.53,18.53,0,0,0-4.55,4c-.26.33-.52.71-.72,1a.86.86,0,0,0-.21.34,6.37,6.37,0,0,0,2.11.11m-3.7,2.72a6.89,6.89,0,0,0-.48.82,1.33,1.33,0,0,1-.36.41.73.73,0,0,1-1.06,0,2.59,2.59,0,0,1-.83-1.83,5.05,5.05,0,0,0,0-.88A5.9,5.9,0,0,0,130,13.6a5,5,0,0,1-.52-1.84,6.21,6.21,0,0,1,1.94-4.44,13,13,0,0,1,4.31-2.95,8.43,8.43,0,0,1,5.54-.51A4.14,4.14,0,0,1,143,5a1.61,1.61,0,0,0,.23.27,1.86,1.86,0,0,0,.44.09,4.37,4.37,0,0,1,1.65.79A3.12,3.12,0,0,1,146.44,8a5.07,5.07,0,0,1-1.58,4.28,15.67,15.67,0,0,1-5.68,3.9,9,9,0,0,1-3.61.64c-.34,0-.7-.12-1-.14a4.64,4.64,0,0,1-.86-.22c-.09-.06-.19-.12-.21-.1m2,3.43.27.08A2.3,2.3,0,0,1,137,21.7a53.49,53.49,0,0,1,.71,7.51c.05,1.19.08,2.38.13,3.56a14.23,14.23,0,0,1-.08,3.27,1.57,1.57,0,0,1-.63.93,2.79,2.79,0,0,1-1.68.16c-1.14-.24-1.51-1-1.67-2.1a56.08,56.08,0,0,1,0-10.22,21.33,21.33,0,0,1,.74-4.08c.13-.34.41-1,.89-.92m-35.19,4.05s-1.69.12-2.85.25a32,32,0,0,0-5.87,1.21c-.48.17-1.46.58-1.54,1.08a1.68,1.68,0,0,0,.58,1.33c.21.24,1.37,1.35,1.69,1.63a29.54,29.54,0,0,0,6.16,3.74c.7.29,1.86.7,1.86.7s-.09-3.29-.07-6.54c0-1.71,0-3.4,0-3.4m31,1.31a14.77,14.77,0,0,1-.17,2.78,13.14,13.14,0,0,1-.52,1.82c-.31.71-.62,1.3-.94,1.88A15.54,15.54,0,0,1,127,34.91c-2.91,2.51-7.42,4-11.28,4.42a28.82,28.82,0,0,1-8.42-.25c-1-.17-2.37-.5-2.37-.5a9.69,9.69,0,0,1,0,1,4.53,4.53,0,0,1-.23.82,1.29,1.29,0,0,1-1,.72,3,3,0,0,1-1.74-.08,2.49,2.49,0,0,1-1.35-2.15c-.12-.77-.25-2.09-.25-2.09l-1.22-.59a30.69,30.69,0,0,1-4.7-2.88c-.39-.29-2.06-1.69-2.43-2A13.6,13.6,0,0,1,89.24,28,3.08,3.08,0,0,1,89,25.15C89.53,23.71,91.6,22.62,93,22a33.16,33.16,0,0,1,5.63-1.71,16.24,16.24,0,0,0,1.68-.31.17.17,0,0,0,.06-.06s.09-1.47.08-2,.38-3.9.5-4.62a8.69,8.69,0,0,1,.66-2.27.6.6,0,0,1,.83-.06c1.54,1,2,4.29,2.13,6,.07,1,.1,2.59.1,2.59s1.77-.05,2.86,0a25.89,25.89,0,0,1,3.33.37,23.15,23.15,0,0,1,5.73,1.62,5.83,5.83,0,0,1,2.9,2.94,3,3,0,0,1-.25,2.78,3.87,3.87,0,0,1-3,2,5,5,0,0,1-2.12-.48.36.36,0,0,1,0-.51,11,11,0,0,1,1-.59,2.43,2.43,0,0,0,.48-.34c.31-.27.59-.57.56-.92s-.53-.73-1-.91a35.43,35.43,0,0,0-8.52-1.69c-.81-.05-2-.09-2-.09L105,35.12s1,.19,1.71.31c.43.06,2.26.23,2.74.24,3.7.1,7.83-.23,11.23-1.84a11.63,11.63,0,0,0,3.89-2.75,8,8,0,0,0,1.89-5.95c-.2-2.44-1.92-5.34-3.3-7.11-3.62-4.66-9.84-8.5-15.31-10.75a48.89,48.89,0,0,0-17-3.83,28.44,28.44,0,0,0-6.55.48c-.24.07-.48.15-.7.2a1.79,1.79,0,0,0-.53.22l-.09.08.21.1c.17.08.93.13,1.32.2a1.29,1.29,0,0,1,.85.5.52.52,0,0,1,0,.64c-.38.46-1.82.38-2.45.28s-1.48-.3-1.63-.88a2.72,2.72,0,0,1,.49-1.94,4.72,4.72,0,0,1,3.15-2.26A33.12,33.12,0,0,1,91.5,0a38.72,38.72,0,0,1,12.9,1.91,61.83,61.83,0,0,1,8,3.12,63.38,63.38,0,0,1,5.84,3.29c.47.31,3.23,2.33,3.65,2.69.9.73,2.06,1.78,2.91,2.62a27,27,0,0,1,4.66,6.08c.24.47.43.94.73,1.49a11.12,11.12,0,0,1,.63,1.63c.08.32.19.79.2.81A11.26,11.26,0,0,1,131.26,25.17Zm19.06.83.18,0a13.67,13.67,0,0,1,3.7.88,3.75,3.75,0,0,1,2,1.88,5.82,5.82,0,0,1,.13,4.93,5.86,5.86,0,0,1-2.7,2.56,9.8,9.8,0,0,1-3.35.91,12,12,0,0,1-6.35-1.13,7.64,7.64,0,0,1-3.22-2.74,2.71,2.71,0,0,1,.13-2.92c1-1.37,3.13-1.67,4.73-1.61a19.43,19.43,0,0,1,4.6.84,8.75,8.75,0,0,1,1.72.79.57.57,0,0,1,.17.56c-.26.82-2.24,1.25-2.81,1.33-1.52.23-2.32-.34-4.05-1a5.92,5.92,0,0,0-1.45-.4c-.79-.07-1.74.15-1.89,1-.07.44.45.86.85,1a6.45,6.45,0,0,0,2.6.56c2.71,0,5.75-.4,8-2a1.26,1.26,0,0,0,.61-.93c0-.06-.07-.49-.21-.53s0,0-.06,0-.13-.16-.21-.25a3.64,3.64,0,0,0-.92-.52,22.37,22.37,0,0,0-5.67-1c-1.49-.13-3.84-.33-4.4-.41a6.69,6.69,0,0,1-1.71-.42,2.15,2.15,0,0,1-1.15-1.3,4.06,4.06,0,0,1,.64-3.08c1.48-2.13,4.94-2.94,7.54-3.26s6.55-.31,9,1c.38.2.57.39.49.8A2,2,0,0,1,155.81,23a15.74,15.74,0,0,1-2.9.36c-3,.17-6.55.08-9.38.85a2.12,2.12,0,0,0-.73.31c-.44.48.82.62,1.1.67l.18,0,6.24.74m9.26,11.1c-1.2-.44-1.47-2.37-1.52-3.35a30.43,30.43,0,0,1,1.72-10.61c.3-.85.75-2.24,1.7-2.16A2.23,2.23,0,0,1,163,22.06c.94,1.33,2.17,3.12,3,4.37s1.79,2.81,2.66,4.09a1.87,1.87,0,0,0,.32.4c.15.13.3.13.36,0s0-1.66-.07-2c-.06-.51-.1-.93-.15-1.38a38.44,38.44,0,0,0-.89-4.32c-.36-1.37-.79-2.8-1.12-4.13a5.83,5.83,0,0,1-.19-1.28.67.67,0,0,1,1-.69c1.22.42,2.83,3.07,3.31,4,.15.31.79,1.89.93,2.33a18.9,18.9,0,0,1,.95,4.6,12.79,12.79,0,0,1-.65,5.53,6.06,6.06,0,0,1-1.19,1.76,2.74,2.74,0,0,1-2.91.58c-1-.57-2.65-3.42-2.93-3.91-1-1.67-2.6-4.93-2.86-5.3a.51.51,0,0,0-.25-.2c-.1,0-.14.17-.17.31-.16.95-.27,5.39-.28,5.52a21.79,21.79,0,0,1-.28,3.48c-.14.59-.28,1.08-.82,1.32a1.31,1.31,0,0,1-1.15-.07m16.52-.28a5.38,5.38,0,0,1-.49-.48s-.45-.68-.54-.88l-.19-.43a5.36,5.36,0,0,1-.16-3.1,13.11,13.11,0,0,1,.91-2.45,1,1,0,0,0,.06-.23c0-.19-.29-1.48-.3-1.89,0-.63.46-1.08,1.28-1.16l.19,0c.33-.08.53-.71.71-1.21l.64-1.78a16.19,16.19,0,0,1-1.59-.45,2.22,2.22,0,0,1-1.36-1.1c-.34-.66-.12-1,.57-1.25.26-.08,2.27-.46,2.9-.55.79-.12,1.54-.22,2.29-.31s3.66-.43,4.62-.4A3.77,3.77,0,0,1,188.89,21c.46.66.77,1.44.08,1.87-1.06.64-4.5.69-5.13.7-1,0-2.4,0-2.4,0l-.7,2.34,3.85,0a4.77,4.77,0,0,1,.86.06c.71.16,1,.7,1,1.48s-.14,1.34-.87,1.46c-.38.06-4.61.09-5.18.15l-.74.1s-.31.8-.57,1.6-.5,1.7-.5,1.7H179a5.21,5.21,0,0,0,.84-.08c1.29-.24,3.21-.52,4.79-.77.84-.14,1.27-.2,1.72.36a2.54,2.54,0,0,1,.61,1.52c0,.56-.41.94-.93,1.34a15.64,15.64,0,0,1-6.64,2.89,4.51,4.51,0,0,1-2.83-.57Zm26.77-11.77a23.39,23.39,0,0,0-3.18,3.75c-.89,1.28-1.74,2.75-2.55,3.89a12.88,12.88,0,0,0-.68,1.2,2.63,2.63,0,0,0,1.1,0,9.22,9.22,0,0,0,3.55-1.66,7.54,7.54,0,0,0,2.58-4.06,4.32,4.32,0,0,0-.25-3,.4.4,0,0,0-.57-.07M194.2,38.44s-.34,1-.6,1.81c-.43,1.37-1.4,5.07-1.62,6.22-.34,1.7-1.29,6.17-1.34,6.27a.58.58,0,0,1-.27.27c-.4.23-.55.16-1-.1a4.57,4.57,0,0,1-1.63-1.26c-.93-1.22-.71-3.49-.52-4.83a42,42,0,0,1,3.06-11.39.17.17,0,0,0,0-.17,9.29,9.29,0,0,1-.86-3.76c0-3.65,2.1-7.26,4.45-10.16.18-.22,1.33-1.6,1.86-1.57s.61.64.53,1.15c-.26,1.68-1.45,3.4-2.26,4.82a14,14,0,0,0-1.55,3.7,13.12,13.12,0,0,0-.25,1.43,8.2,8.2,0,0,0,.11.88s1.48-2.08,2.46-3.36c.53-.7.92-1.16,1.36-1.67s2.19-2.31,2.69-2.79a9.77,9.77,0,0,1,2.66-2,2.33,2.33,0,0,1,2.59,0c1.39.92,2,2.85,2.15,4.42a10.41,10.41,0,0,1-1,5.59A11.6,11.6,0,0,1,201,36.44a11.08,11.08,0,0,1-6.19,2l-.63,0"/><path class="cls-3" d="M464.78,91h9.47V51.8h-9.47ZM448.16,79.78a2.56,2.56,0,0,1-2.53,2.53h-5.5a2.56,2.56,0,0,1-2.53-2.53V64h-9.47V80.57c0,6.77,4.35,10.34,10.73,10.34h9.25c5.89,0,9.46-4.23,9.46-10.34V64h-9.46c.05,0,.05,15.3.05,15.8ZM501.38,64v15.8a2.57,2.57,0,0,1-2.53,2.53h-5.51a2.57,2.57,0,0,1-2.53-2.53V64h-9.46V80.57c0,6.77,4.35,10.34,10.73,10.34h9.24c5.89,0,9.47-4.23,9.47-10.34V64Zm-90.69,0h-6.06a7.42,7.42,0,0,0-3.19.55V51.79H392V90.91h9.41V75.17a2.56,2.56,0,0,1,2.53-2.53h5.5A2.56,2.56,0,0,1,412,75.17V91h9.47V73.89c0-7.13-4.79-9.89-10.72-9.89Z"/><path class="cls-2" d="M655.7,75.34l.24,0a19,19,0,0,1,4.86,1.15A5.09,5.09,0,0,1,663.43,79a7,7,0,0,1-3.38,9.85,13,13,0,0,1-4.41,1.19,15.65,15.65,0,0,1-8.33-1.48A9.9,9.9,0,0,1,643.1,85a3.56,3.56,0,0,1,.17-3.84c1.29-1.79,4.1-2.18,6.21-2.11a25.66,25.66,0,0,1,6,1.11,11.53,11.53,0,0,1,2.27,1,.72.72,0,0,1,.23.73c-.35,1.07-2.94,1.62-3.69,1.75-2,.3-3-.46-5.32-1.36a8.36,8.36,0,0,0-1.9-.52c-1-.09-2.27.19-2.48,1.32-.1.59.58,1.13,1.11,1.36a8.42,8.42,0,0,0,3.39.72c3.57.06,7.55-.53,10.46-2.6a1.61,1.61,0,0,0,.79-1.22c0-1.06-1.84-1.71-1.84-1.71a30.21,30.21,0,0,0-7.46-1.36c-2-.17-5-.43-5.77-.54a8.71,8.71,0,0,1-2.25-.55,2.79,2.79,0,0,1-1.5-1.71,5.34,5.34,0,0,1,.83-4c2-2.79,6.49-3.85,9.9-4.28s8.61-.4,11.84,1.3c.5.27.75.52.65,1.05a2.58,2.58,0,0,1-1.88,1.94,20,20,0,0,1-3.8.48c-3.89.22-8.61.1-12.32,1.12a2.54,2.54,0,0,0-1,.4c-.58.65,1.08.81,1.44.88l.23,0,8.21,1M632.49,58s.64-.95,1.16-1.67a29.07,29.07,0,0,1,4-4.26c.4-.35.88-.74.88-.74s-.75.08-1.17.16a9,9,0,0,0-3.2,1.8c-1.21,1-2.54,2.72-1.94,4.22.08.21.22.49.22.49m6.72,1.8a12.61,12.61,0,0,0,5.36-1.61c1.62-.91,4-2.69,3.79-4.78A1.75,1.75,0,0,0,647.27,52a2.41,2.41,0,0,0-2,0,6.25,6.25,0,0,0-1.62.68,24.47,24.47,0,0,0-6,5.28c-.33.44-.67.93-.94,1.26s-.29.4-.27.45c.05.21,2,.19,2.77.14m-4.87,3.57a8.75,8.75,0,0,0-.62,1.07,2.05,2.05,0,0,1-.47.55,1,1,0,0,1-1.37,0l0,0a3.43,3.43,0,0,1-1.09-2.4,6.42,6.42,0,0,0,0-1.16,7.88,7.88,0,0,0-1-1.66,6.45,6.45,0,0,1-.65-2.39,8.17,8.17,0,0,1,2.55-5.84,16.9,16.9,0,0,1,5.65-3.87c2-.86,5-1.45,7.27-.67a5.55,5.55,0,0,1,2.27,1.52,1.47,1.47,0,0,0,.31.35,2.17,2.17,0,0,0,.56.13,5.51,5.51,0,0,1,2.17,1,4.11,4.11,0,0,1,1.52,2.43c.42,2-.75,4.26-2.08,5.62a20.65,20.65,0,0,1-7.45,5.12,12,12,0,0,1-4.74.84c-.45,0-.92-.16-1.35-.19a6.35,6.35,0,0,1-1.14-.29c-.11-.09-.24-.16-.27-.13M637,67.85a1.4,1.4,0,0,1,.35.1,3,3,0,0,1,1.7,2.37,73,73,0,0,1,.93,9.86c.06,1.56.11,3.11.17,4.66a18.67,18.67,0,0,1-.11,4.3,2.07,2.07,0,0,1-.82,1.22,3.78,3.78,0,0,1-2.2.21c-1.5-.31-2-1.27-2.2-2.76a74.88,74.88,0,0,1,0-13.41,28.75,28.75,0,0,1,1-5.36c.17-.44.54-1.32,1.18-1.19M591.4,73.73s-2.24.16-3.77.32a41.58,41.58,0,0,0-7.74,1.61c-.63.22-1.93.76-2,1.42a2.23,2.23,0,0,0,.77,1.75c.27.32,1.8,1.79,2.23,2.15A39.23,39.23,0,0,0,589,85.92c.92.38,2.45.92,2.45.92s-.12-4.34-.09-8.62c0-2.27.06-4.49.06-4.49m40.89,1.72a18.83,18.83,0,0,1-.22,3.67,17,17,0,0,1-.69,2.41c-.37.84-.78,1.67-1.23,2.48a20.4,20.4,0,0,1-3.51,4.29c-3.83,3.32-9.78,5.21-14.88,5.84a37.57,37.57,0,0,1-11.1-.33c-1.26-.22-3.14-.64-3.14-.64s0,.75,0,1.29a5,5,0,0,1-.33,1.08,1.71,1.71,0,0,1-1.34,1,4.07,4.07,0,0,1-2.29-.12,3.29,3.29,0,0,1-1.78-2.83c-.17-1-.33-2.76-.33-2.76s-.87-.41-1.6-.78a41.63,41.63,0,0,1-6.21-3.8c-.51-.38-2.72-2.23-3.2-2.69a18.45,18.45,0,0,1-3.54-4.24,4.1,4.1,0,0,1-.38-3.82c.77-1.91,3.5-3.35,5.38-4.17A45.56,45.56,0,0,1,589.28,69c.84-.12,2.14-.35,2.23-.4l.07-.07c0-.06.11-1.95.1-2.65s.5-5.15.67-6.09a11.27,11.27,0,0,1,.87-3,.79.79,0,0,1,1.09-.1c2,1.27,2.66,5.67,2.81,7.91.09,1.36.13,3.41.13,3.41s2.34-.07,3.78,0a34.08,34.08,0,0,1,4.39.49A30.68,30.68,0,0,1,613,70.65a7.69,7.69,0,0,1,3.83,3.89,3.94,3.94,0,0,1-.33,3.68,5.07,5.07,0,0,1-4,2.59,6.27,6.27,0,0,1-2.79-.64.5.5,0,0,1,0-.68c.06-.07.88-.51,1.37-.77a3.27,3.27,0,0,0,.65-.45,1.61,1.61,0,0,0,.73-1.22c0-.6-.69-1-1.29-1.2a47.12,47.12,0,0,0-11.24-2.23c-1.07-.06-2.59-.11-2.59-.11l.32,15.1s1.26.25,2.25.41c.57.08,3,.3,3.63.32,4.88.13,10.33-.3,14.81-2.42a15.52,15.52,0,0,0,5.14-3.64A10.56,10.56,0,0,0,626,75.44c-.27-3.22-2.54-7-4.35-9.38-4.79-6.16-13-11.22-20.21-14.19a64.54,64.54,0,0,0-22.47-5.06,37.2,37.2,0,0,0-8.63.65c-.33.09-.65.2-.94.26a2.66,2.66,0,0,0-.7.29l-.11.11.27.13c.23.1,1.23.17,1.74.26a1.66,1.66,0,0,1,1.12.65.66.66,0,0,1,0,.84c-.5.61-2.4.51-3.24.38s-1.94-.41-2.14-1.16a3.57,3.57,0,0,1,.64-2.57,6.15,6.15,0,0,1,4.16-3,41.87,41.87,0,0,1,8.75-1.38,51.12,51.12,0,0,1,17,2.52,81.25,81.25,0,0,1,10.58,4.11,83.22,83.22,0,0,1,7.71,4.34c.62.41,4.26,3.08,4.82,3.55,1.18,1,2.72,2.35,3.84,3.46a36,36,0,0,1,6.16,8c.32.62.55,1.23,1,1.94a16.59,16.59,0,0,1,.83,2.16c.1.42.25,1,.27,1.07a16.23,16.23,0,0,1,.25,2Zm73.4-3.33a90.2,90.2,0,0,1-9.92,1l-.91,2.84a39.6,39.6,0,0,1,6.21,0s.84-.11.94,1a15.62,15.62,0,0,1-.08,2s-.06.65-1,.8-7.75.43-7.75.43l-1.09,3.7s-.41.86.5.61,7.93-1.56,8.85-1.36a2.53,2.53,0,0,1,1.77,2.76c-.38,1.49-7.46,6-11.75,5.69,0,0-2.27.14-4.17-2.92s.67-8.43.67-8.43-1.12-2.58-.32-3.45a3.3,3.3,0,0,1,1.9-.54l1.73-3.58a4,4,0,0,1-3.15-1.32c-1.09-1.37-1.18-2-.35-2.39s9.12-1.94,14.77-1.75c0,0,2-.19,3.67,3.22,0,0,.83,1.38-.58,1.71ZM684.42,85.89c-.72,1.71-2.64,3.53-5,2.4s-6.08-8.79-6.08-8.79-1.42-2.85-1.7-2.78c0,0-.32-.56-.49,2.56s0,9.16-1.2,10.12a2.18,2.18,0,0,1-3.33-.55c-.67-1.1-1-3.71-.59-8.3s1.5-9.49,2.87-11a1.73,1.73,0,0,1,2.88,0,33.29,33.29,0,0,1,4.83,6.5l.53.9s2.73,4.59,3,4.57c0,0,.22.22.42.06s.18-1.55.18-1.55a88.33,88.33,0,0,0-3.07-13.45,4,4,0,0,1-.12-2c.25-1,1.26-.54,1.26-.54s3.86,2,5.73,8.24a22.55,22.55,0,0,1-.12,13.68ZM726,82.13c-1.75,3.07-6.72,9.49-13.32,8a68.35,68.35,0,0,0-5,18.62s-.23,1.56-1.53,1-3.39-2.59-3.81-5.51c-.46-3.87,1.26-10.41,4.78-17.91a10.32,10.32,0,0,1-1.13-7.45s.89-6.31,7.22-12c0,0,.76-.65,1.2-.45s.26,2.25-.13,3.24S711,75.54,711,75.54s-1.76,3.3-1.27,5.9c3.32-5.11,10.87-15.4,15.56-12.16,1.57,1.13,2.3,3.57,2.3,6.21A14.12,14.12,0,0,1,726,82.11ZM724.64,74s-.26-2-2.24.21a48.29,48.29,0,0,0-7.27,10.22A12,12,0,0,0,721,82.05c1.23-1.09,4.1-4.06,3.64-8Zm37.73-.46h-12.1a93.65,93.65,0,0,0-1.52-12.24.88.88,0,0,0-.88-.73h-2.79a.79.79,0,0,0-.62.3.8.8,0,0,0-.18.68,88,88,0,0,1,1.54,12H734.19a1,1,0,0,0-1,1v2.51a1,1,0,0,0,1,1H746v1.7a90,90,0,0,1-.52,10,.93.93,0,0,0,.82,1H749a1,1,0,0,0,1-.88,92.24,92.24,0,0,0,.5-10.11V78h11.93a1,1,0,0,0,1-1v-2.5a1,1,0,0,0-1-1Z"/><path class="cls-4" d="M747.1,54.69A83.29,83.29,0,0,0,600.64,39.9a1,1,0,0,0-.11.86,1,1,0,0,0,.61.62l2.17.73a1.32,1.32,0,0,0,.39.06,1.21,1.21,0,0,0,1-.53A78.9,78.9,0,0,1,742.64,55.25a1.12,1.12,0,0,0,1,.69h2.6a.89.89,0,0,0,.82-1.25Z"/><path class="cls-2" d="M914.11,60.22H868.88c-4.64,0-7.7,2.44-8.14,6.09-.16,1.34-.31,2.53-.31,2.53h60.26s.12-.89.2-1.61c.46-3.68-1.09-7-6.78-7"/><path class="cls-2" d="M920.29,72.12s-.13,1.21-.32,2.54c-.36,2.63-2.32,4.59-6,4.59H901.17l-1.45,11.67H889.5l2.32-18.81Z"/><polygon class="cls-2" points="831.03 68.84 858.37 68.84 859.44 60.22 832.1 60.21 831.03 68.84"/><polygon class="cls-2" points="830.62 72.12 828.29 90.92 855.62 90.92 856.63 82.76 839.52 82.76 839.96 79.24 857.07 79.24 857.96 72.12 830.62 72.12"/><path class="cls-2" d="M923.84,60.22h22.29c3.52,0,7.2,1.64,6.46,7.29-.13,1-.16,1.33-.16,1.33H922.78Z"/><polygon class="cls-2" points="920.03 90.92 930.26 90.92 932.59 72.12 922.37 72.11 920.03 90.92"/><polygon class="cls-2" points="939.45 90.92 949.67 90.92 952.01 72.12 941.78 72.11 939.45 90.92"/><path class="cls-2" d="M882.47,72.12H860c-.76,4.92,1.7,7.14,5.18,7.14H879l-.43,3.52H858.7l-1,8.16s21.66,0,22.53,0,5.8-.19,7.52-4.33c.56-1.35,1.06-6.17,1.2-7.18.81-5.88-3.26-7.29-6.47-7.29"/><polygon class="cls-5" points="985.34 72.11 976.9 72.11 977.95 63.74 969.72 63.74 968.68 72.11 960.25 72.11 959.23 80.28 967.67 80.28 966.63 88.64 974.85 88.64 975.89 80.28 984.33 80.28 985.34 72.11"/><rect class="cls-6" x="1.76" y="32.53" width="82.04" height="3.21"/><polygon class="cls-2" points="1199.61 71.85 1189 71.85 1189 61.23 1183.36 61.23 1183.36 71.85 1172.75 71.85 1172.75 77.32 1183.36 77.32 1183.36 87.93 1189 87.93 1189 77.32 1199.61 77.32 1199.61 71.85"/><path class="cls-2" d="M1153.44,64.35c2.73,0,4.48,1.42,4.48,3.78a4.12,4.12,0,0,1-4.48,4.21h-4.38v-8Zm3.44,13.57a9.88,9.88,0,0,0,8.59-9.79c0-6.68-4.54-10.34-11.87-10.34h-12V91.38h7.44V78.08l8.92,13.3h8.64Zm-59.62-20.13H1075.1v6.78h7.28V91.38H1090V64.57h7.27ZM1061.11,70.1c-2.13-1-2.95-2-2.95-3.4a3,3,0,0,1,3.39-2.84c1.86,0,3.23,1,4.26,3.39l6.41-2.79c-1.75-4.49-5.31-7.11-11.06-7.11-6.07,0-10.56,4-10.56,9.35,0,3.67,1.76,6.68,6.24,8.92l4.49,2.24c2.52,1.26,3.72,2.19,3.72,4a3.5,3.5,0,0,1-3.72,3.4c-2.24,0-4.27-1.26-5.2-4.11l-6.78,2c1.53,5.53,6.07,8.76,12,8.76,6.4,0,11.32-4.11,11.32-10,0-4.54-2.4-7.6-7.27-9.84Z"/><path class="cls-7" d="M1125.47,78.79l5.17,15.93-13.54-9.85a.45.45,0,0,0-.5,0l-13.55,9.85,1.46-4.5a2.27,2.27,0,0,1,.35-.65c7-9,17.71-17,17.71-17-7,1.83-10.25,3.45-14,5.78a.42.42,0,0,1-.47,0l-13.56-9.85h16.74a.42.42,0,0,0,.4-.3l5.18-15.92L1122,68.18a.43.43,0,0,0,.4.3h16.75l-13.55,9.84A.41.41,0,0,0,1125.47,78.79Z"/></g></g></svg>