<?xml version="1.0" encoding="utf-8"?>
<!-- Generator: Adobe Illustrator 23.0.1, SVG Export Plug-In . SVG Version: 6.00 Build 0)  -->
<svg version="1.1" id="Layer_1" xmlns="http://www.w3.org/2000/svg" xmlns:xlink="http://www.w3.org/1999/xlink" x="0px" y="0px"
	 viewBox="0 0 241.8 58.2" style="enable-background:new 0 0 241.8 58.2;" xml:space="preserve">
<style type="text/css">
	.st0{fill:#FFFFFF;}
</style>
<path class="st0" d="M50.9,0C66.6,0,82.3,0,98,0c1.7,0,3.4,1.2,3.7,3.1c0,0.2,0,0.5,0,0.7c0,16.8,0,33.7,0,50.5
	c0,1.9-1.2,3.4-2.8,3.7c-0.3,0.1-0.5,0.1-0.8,0.1c-31.5,0-63.1,0-94.6,0c-1.8,0-3.3-1.3-3.6-3.2c0-0.2,0-0.4,0-0.6
	C0,37.5,0,20.6,0,3.8C0,1.6,1.8,0,3.7,0C19.5,0,35.2,0,50.9,0z M9.4,15.5C9.4,15.4,9.4,15.4,9.4,15.5c0.1-0.1,0.3-0.2,0.4-0.3
	c1.2-0.4,2.4-0.5,3.6-0.5c2.2-0.1,4.3,0.2,6.4,0.7c2.4,0.5,4.8,1.3,7,2.4c3.1,1.5,5.9,3.2,8.3,5.7c1,1,1.8,2.2,2.4,3.5
	c0.7,1.8,0.7,3.6-0.4,5.3c-0.8,1.2-2,2-3.4,2.6c-3.2,1.3-6.4,1.5-9.7,0.9c-0.3-0.1-0.4-0.1-0.4-0.4c0-2.3-0.1-4.6-0.1-6.9
	c0-0.3,0.1-0.4,0.4-0.3c1.4,0.1,2.7,0.2,4.1,0.3c0.9,0.1,1.8,0.4,2.7,0.7c0.3,0.1,0.7,0.3,0.7,0.6c0,0.4-0.4,0.6-0.7,0.7
	c-0.3,0.1-0.5,0.2-0.8,0.4c-0.3,0.2-0.3,0.3,0,0.5c0.9,0.5,1.8,0.6,2.7,0c1.1-0.8,1.6-2.4,0.7-3.5c-0.5-0.7-1.3-1.2-2.1-1.6
	c-1.8-0.7-3.7-0.9-5.6-1.1c-0.6,0-1.2,0-1.8,0c-0.1-0.9-0.1-1.7-0.2-2.5c-0.1-1-0.2-1.9-0.9-2.7c-0.2-0.2-0.4-0.5-0.7-0.5
	c-0.3,0.1-0.4,0.4-0.5,0.7c-0.2,1.1-0.4,2.3-0.6,3.4c-0.1,0.6-0.1,1.2-0.1,1.9c-0.1,0-0.2,0.1-0.3,0.1c-1.5,0.3-3,0.7-4.4,1.3
	c-0.9,0.4-1.8,0.8-2.5,1.5c-0.8,0.8-0.9,1.8-0.3,2.7c0.3,0.4,0.6,0.8,1,1.2c1.7,1.9,3.8,3.4,6.1,4.5c0.2,0.1,0.3,0.2,0.3,0.4
	c0.1,0.5,0.2,1,0.3,1.5c0.3,1.1,1.2,1.4,2.2,1c0.3-0.1,0.5-0.4,0.5-0.7c0-0.3,0.1-0.6,0.1-0.9c0.7,0.1,1.4,0.3,2.1,0.4
	c3.3,0.5,6.4,0.2,9.5-1c1.8-0.7,3.4-1.8,4.5-3.4c1.4-2.1,1.8-4.4,1.1-6.8c-0.6-2-1.7-3.7-3.1-5.2c-2.3-2.5-5-4.4-8-5.9
	c-3.9-2-8-3.2-12.4-3.5c-2.4-0.2-4.8,0-7.2,0.7C9.6,13.4,9,13.5,8.7,14c-0.2,0.3-0.5,0.7-0.7,1c-0.4,0.7-0.2,1.3,0.6,1.5
	c0.7,0.2,1.3,0.2,2,0c0.1,0,0.3-0.2,0.4-0.3c-0.1-0.1-0.2-0.3-0.4-0.3C10.2,15.7,9.8,15.6,9.4,15.5z M80.2,32.1c0-0.2,0-0.3,0-0.4
	c0.1-0.6,0.2-1.2,0.4-1.8c0.4-0.9,0.9-1.8,1.4-2.6c0.3-0.7,0.8-1.3,0.7-2.1c0-0.2,0-0.6-0.1-0.7c-0.2-0.2-0.5,0.1-0.7,0.2
	c-1.7,1.6-3,3.6-3.5,5.9c-0.3,1.3-0.2,2.6,0.4,3.8c0,0.1,0,0.2,0,0.4c-0.5,1.4-1.1,2.8-1.6,4.3c-0.5,1.4-0.8,2.8-0.7,4.2
	c0.1,1.3,0.6,2.4,1.7,3.1c0.6,0.4,1,0.2,1.1-0.5c0.4-3.1,1.2-6.2,2.4-9.1c0.1-0.2,0.2-0.3,0.4-0.2c1,0.2,2,0,2.9-0.5
	c2.4-1.4,4-3.4,4.3-6.3c0.1-1,0-2-0.4-2.9c-0.4-1-1.3-1.5-2.2-1.2c-0.5,0.2-1.1,0.4-1.6,0.8c-1.5,1.1-2.6,2.5-3.6,3.9
	C81,31,80.6,31.5,80.2,32.1z M53.4,24.8c-1.8,0-3.6,0.4-5.3,1.1c-1.2,0.5-1.9,1.4-2,2.8c-0.1,1,0.2,1.5,1.2,1.7
	c0.7,0.2,1.4,0.2,2.1,0.3c1.3,0.1,2.5,0.2,3.8,0.3c0.6,0.1,1.3,0.3,1.9,0.5c0.6,0.3,0.7,0.8,0.1,1.3c-0.3,0.2-0.7,0.5-1,0.6
	c-1.3,0.5-2.6,0.7-4,0.7c-0.6,0-1.2-0.1-1.8-0.3c-0.4-0.1-0.6-0.4-0.6-0.7c0.1-0.4,0.5-0.7,0.9-0.6c0.4,0.1,0.8,0.2,1.2,0.4
	c0.8,0.4,1.7,0.6,2.7,0.5c0.5-0.1,1.1-0.2,1.5-0.5c0.3-0.3,0.3-0.6,0-0.8c-0.4-0.2-0.8-0.5-1.3-0.6c-1.4-0.4-2.8-0.6-4.2-0.3
	c-0.9,0.1-1.5,0.6-1.9,1.4c-0.3,0.8-0.1,1.5,0.4,2.1c0.9,1,2,1.6,3.3,1.9c1.9,0.4,3.7,0.1,5.4-0.7c0.9-0.4,1.4-1,1.5-1.9
	c0.1-0.6,0.1-1.2,0.1-1.7c-0.1-1.1-0.6-1.9-1.6-2.4c-1-0.5-2-0.6-3.1-0.7c-1.3-0.1-2.6-0.2-3.9-0.4c-0.2,0-0.3-0.2-0.5-0.2
	c0.1-0.1,0.3-0.2,0.4-0.4c0,0,0.1,0,0.2,0c1.1-0.2,2.3-0.4,3.4-0.5c1.4-0.2,2.9-0.3,4.3-0.4c0.4,0,0.7-0.2,0.9-0.5
	c0.5-0.8,0.4-1.1-0.5-1.4C55.9,24.9,54.7,24.9,53.4,24.8z M72.7,29.3c0.1-0.4,0.2-0.7,0.3-1.1c0.1-0.2,0.2-0.3,0.4-0.3
	c0.4,0,0.9,0,1.3-0.1c1.1-0.1,2.2-0.2,3.3-0.4c0.5-0.1,0.6-0.4,0.4-0.8c-0.2-0.4-0.5-0.9-0.8-1.2c-0.3-0.4-0.8-0.5-1.3-0.5
	c-1.8,0-3.7,0.2-5.5,0.5c-0.5,0.1-1.1,0.2-1.6,0.4c-0.4,0.1-0.5,0.3-0.4,0.6c0.3,0.6,0.7,1.1,1.4,1.3c0.2,0,0.4,0.1,0.6,0.1
	c-0.2,0.4-0.4,0.8-0.6,1.2c-0.1,0.3-0.3,0.6-0.7,0.6c-0.5,0.1-0.7,0.3-0.6,0.8c0,0.3,0.1,0.6,0.2,0.9c0,0.1,0,0.3,0,0.5
	c-0.2,0.6-0.4,1.2-0.5,1.8c-0.2,1-0.1,1.9,0.6,2.7c0.6,0.7,1.4,1.1,2.4,1c0.8-0.1,1.6-0.4,2.4-0.7c0.9-0.4,1.8-1,2.5-1.7
	c0.5-0.5,0.5-0.9,0.1-1.5c-0.4-0.5-0.9-0.5-1.5-0.4c-1.2,0.2-2.4,0.4-3.6,0.6c-0.3,0.1-0.3,0-0.3-0.3c0.2-0.6,0.3-1.1,0.5-1.6
	c0.1-0.2,0.1-0.2,0.3-0.2c0.9,0,1.8-0.1,2.7-0.1c0.3,0,0.7,0,1-0.1c0.1,0,0.3-0.2,0.4-0.4c0.1-0.3,0.1-0.7,0.1-1.1
	c0-0.3-0.1-0.5-0.5-0.5c-0.7,0-1.4,0-2.1,0C73.4,29.3,73.1,29.3,72.7,29.3z M60.9,29.8c0,0,0.1,0,0.1,0c0.1,0.1,0.2,0.2,0.3,0.4
	c0.6,1.1,1.1,2.2,1.8,3.2c0.4,0.7,0.9,1.4,1.5,2c0.5,0.6,1.3,0.7,1.9,0.3c0.6-0.3,0.9-0.8,1.1-1.4c0.5-1.5,0.6-3,0.4-4.6
	c-0.2-1.7-0.6-3.3-1.5-4.7c-0.5-0.7-1-1.3-1.7-1.7c-0.4-0.2-0.7-0.1-0.8,0.4c0,0.3,0,0.6,0.1,0.9c0.4,1.9,0.9,3.8,1.4,5.7
	c0.1,0.6,0.1,1.2,0.2,1.7c0,0.1-0.1,0.2-0.1,0.2c-0.1,0-0.2,0-0.2-0.1c-0.1-0.1-0.2-0.3-0.3-0.4c-0.8-1.3-1.7-2.7-2.5-4
	c-0.4-0.6-0.9-1.2-1.5-1.7c-0.4-0.4-0.8-0.4-1.2,0.1c-0.3,0.3-0.5,0.7-0.6,1.1c-0.8,2.4-1.1,4.9-1,7.4c0,0.4,0.1,0.9,0.2,1.3
	c0.1,0.5,0.6,0.8,1.1,0.8c0.5,0,0.8-0.3,1-0.8c0.1-0.4,0.2-0.8,0.2-1.2c0.1-1.1,0.1-2.2,0.1-3.3C60.7,30.7,60.8,30.3,60.9,29.8z
	 M42.4,22.7c0.1,0,0.2,0.1,0.3,0.1c0.8,0.3,1.6,0.3,2.4,0.2c1.9-0.4,3.5-1.4,4.8-2.9c0.6-0.7,1.1-1.5,1.2-2.4c0.1-0.8,0-1.5-0.7-2
	c-0.4-0.2-0.8-0.3-1.3-0.4c-0.1,0-0.2,0-0.3-0.1c-0.3-0.5-0.8-0.7-1.3-0.9c-0.9-0.2-1.8-0.1-2.7,0.1c-2.2,0.5-3.9,1.7-4.9,3.8
	c-0.5,1.1-0.4,2.3,0.4,3.2c0.1,0.1,0.1,0.2,0.1,0.3c-0.2,0.7,0.1,1.3,0.5,1.7c0.3,0.4,0.7,0.4,1.1,0C42.1,23.2,42.2,23,42.4,22.7z
	 M45.2,34.4c-0.1-1.3-0.1-2.4-0.1-3.5c0-1.1-0.1-2.2-0.2-3.3c0-0.7-0.2-1.4-0.7-2c-0.2-0.2-0.4-0.5-0.7-0.4
	c-0.3,0.1-0.6,0.3-0.6,0.7c-0.1,1-0.3,2-0.4,3.1c-0.1,1.2-0.1,2.4-0.1,3.7c0,1.1,0.1,2.2,0.2,3.3c0,0.5,0.3,0.9,0.8,1
	c0.3,0.1,0.7,0.1,1,0.1c0.5,0,0.7-0.2,0.7-0.7C45.1,35.5,45.2,34.8,45.2,34.4z"/>
<path class="st0" d="M182,24.4c-0.9,0-1.8,0-2.7,0c0-4.7,0-9.4,0-14.1c0.9,0,1.8,0,2.7,0c0,0.8,0,1.6,0,2.5c0.1-0.1,0.1-0.1,0.1-0.2
	c0.5-1.4,1.5-2.1,2.9-2.4c1-0.2,2.1-0.2,3.1,0.1c1,0.3,1.6,1.1,2.1,2.1c0.1,0.3,0.2,0.6,0.4,0.9c0.1-0.3,0.2-0.5,0.3-0.7
	c0.7-1.4,2-2.2,3.5-2.5c1-0.2,1.9-0.2,2.9,0c1.5,0.3,2.4,1.3,2.9,2.7c0.5,1.2,0.6,2.5,0.6,3.8c0,2.5,0,5,0,7.5c0,0.1,0,0.1,0,0.2
	c-0.9,0-1.8,0-2.8,0c0-0.1,0-0.3,0-0.4c0-2.3,0-4.6,0-6.8c0-0.9-0.1-1.7-0.3-2.6c-0.4-1.7-1.6-2.2-3.1-2.2c-1.2,0-2.2,0.5-2.7,1.6
	c-0.2,0.4-0.3,0.9-0.4,1.4c-0.1,0.6-0.1,1.2-0.1,1.8c0,2.3,0,4.5,0,6.8c0,0.1,0,0.3,0,0.4c-0.9,0-1.8,0-2.8,0c0-0.1,0-0.2,0-0.4
	c0-2.4,0-4.9,0-7.3c0-1-0.1-2-0.6-2.9c-0.3-0.7-0.9-1.2-1.7-1.3c-0.5-0.1-1-0.1-1.5,0c-1.4,0.2-2.1,1.1-2.4,2.4
	c-0.2,0.8-0.3,1.7-0.3,2.5c0,2.2,0,4.4,0,6.6C182,24.1,182,24.3,182,24.4z"/>
<path class="st0" d="M227.8,25.6c0.9-0.2,1.7-0.4,2.5-0.6c0.4,0.5,0.8,1,1.2,1.3c1.1,1,2.5,1.1,3.9,1c1.2-0.1,2.2-0.6,2.8-1.7
	c0.2-0.5,0.4-1,0.5-1.5c0.1-0.9,0.1-1.7,0.2-2.6c0,0-0.1,0-0.1,0c-0.1,0.1-0.1,0.2-0.2,0.3c-0.6,1-1.4,1.7-2.5,2.1
	c-1.7,0.5-3.4,0.5-5.1-0.3c-1.4-0.6-2.4-1.6-3-3c-0.9-2.3-0.9-4.6,0.1-6.9c0.9-2.1,2.6-3.2,4.9-3.5c1.2-0.1,2.3,0,3.4,0.4
	c1.1,0.4,1.9,1.1,2.4,2.1c0,0.1,0.1,0.1,0.1,0.3c0-0.9,0-1.7,0-2.6c0.9,0,1.8,0,2.8,0c0,0.1,0,0.3,0,0.4c0,3.8,0,7.5,0,11.3
	c0,1.3-0.1,2.6-0.6,3.9c-0.6,1.6-1.7,2.7-3.3,3.2c-2.3,0.7-4.6,0.7-6.9-0.2c-1.4-0.6-2.4-1.6-3-3C227.9,25.8,227.9,25.7,227.8,25.6z
	 M239,17c0-0.1,0-0.3,0-0.6c-0.2-2.3-1.5-4-3.9-4.2c-1.7-0.2-3.4,0.5-4.3,2.2c-0.4,0.8-0.6,1.7-0.6,2.6c0,0.9,0.1,1.7,0.5,2.6
	c0.8,1.7,2.3,2.4,4,2.4c1.5,0,2.8-0.7,3.5-2C238.8,19,239,18.1,239,17z"/>
<path class="st0" d="M175.3,24.4c-0.9,0-1.8,0-2.7,0c0-0.8,0-1.6,0-2.5c-0.3,0.4-0.6,0.8-0.9,1.2c-1.3,1.3-2.8,1.8-4.6,1.7
	c-3.3-0.2-5.4-2.5-5.9-5.8c-0.3-1.7-0.2-3.4,0.5-5.1c1.2-3.1,4.2-4.2,6.9-3.8c1.7,0.3,3.1,1.1,3.9,2.7c0,0,0,0,0.1,0.1
	c0-0.9,0-1.7,0-2.6c0.9,0,1.8,0,2.7,0C175.3,15,175.3,19.7,175.3,24.4z M168.3,12.4c-1.9,0-3.4,1-4,2.8c-0.4,1-0.4,2.1-0.3,3.1
	c0.3,2.2,1.6,3.7,3.7,4c2.1,0.3,4-0.8,4.6-2.8c0.4-1.3,0.5-2.7,0.1-4C171.9,13.6,170.3,12.4,168.3,12.4z"/>
<path class="st0" d="M158.1,20.8c-0.7,1.5-1.6,2.7-3.1,3.3c-2.7,1.1-5.3,1-7.8-0.6c-1.4-0.9-2.2-2.2-2.6-3.7
	c-0.5-2.1-0.4-4.2,0.6-6.2c1.1-2.1,3-3.2,5.3-3.4c1.3-0.1,2.6,0,3.9,0.5c2.1,0.9,3.2,2.6,3.7,4.8c0.2,0.8,0.1,1.6,0.2,2.4
	c0,0.3-0.1,0.4-0.4,0.4c-3.5,0-7,0-10.5,0c-0.1,0-0.3,0-0.4,0c0.1,1.4,0.5,2.5,1.5,3.4c1.5,1.2,4.3,1.1,5.6,0.3
	c0.5-0.3,0.9-0.7,1.2-1.2c0-0.1,0.2-0.2,0.3-0.2C156.5,20.5,157.3,20.6,158.1,20.8z M147.2,15.9c2.8,0,5.7,0,8.5,0
	c-0.1-1.4-0.7-2.5-1.9-3.1c-1-0.5-2-0.6-3.1-0.5C148.8,12.5,147.3,14,147.2,15.9z"/>
<path class="st0" d="M137.8,42.8c-3.8,0-7.6,0-11.3,0c0,1.7,0.8,3.2,2.2,3.8c1.5,0.7,3,0.7,4.5,0.1c0.7-0.3,1.2-0.8,1.6-1.4
	c0.1-0.2,0.2-0.2,0.4-0.2c0.8,0.1,1.5,0.2,2.3,0.4c-0.3,0.8-0.7,1.4-1.2,2c-1.1,1.2-2.5,1.8-4.1,1.9c-1.5,0.2-2.9,0.1-4.3-0.5
	c-1.8-0.7-3.1-2.1-3.7-4c-0.7-2.2-0.7-4.4,0.4-6.5c1-2,2.7-3.2,4.9-3.5c1.5-0.2,3-0.1,4.4,0.5c2.2,1,3.3,2.7,3.7,5
	C137.8,41,137.8,41.9,137.8,42.8z M126.6,40.5c2.9,0,5.7,0,8.5,0c-0.1-1.2-0.5-2.2-1.6-2.9c-1.6-1-3.3-1-4.9-0.2
	C127.4,38,126.8,39.2,126.6,40.5z"/>
<path class="st0" d="M203.3,42.8c-3.7,0-7.5,0-11.2,0c0,0.8,0.2,1.5,0.5,2.2c0.7,1.3,1.9,1.9,3.4,2c0.8,0.1,1.6,0,2.3-0.2
	c0.9-0.3,1.6-0.8,2.1-1.6c0.1-0.2,0.2-0.2,0.4-0.2c0.8,0.1,1.5,0.2,2.3,0.4c-0.2,0.6-0.6,1.2-1,1.7c-1,1.2-2.3,1.9-3.9,2.2
	c-1.6,0.3-3.2,0.2-4.7-0.4c-2-0.8-3.3-2.2-3.9-4.1c-0.7-2.3-0.6-4.5,0.6-6.7c1-1.9,2.7-2.9,4.8-3.2c1.5-0.3,3.1-0.1,4.5,0.5
	c1.9,0.9,3,2.4,3.5,4.5C203.3,40.8,203.4,41.7,203.3,42.8z M200.7,40.6c0-1.1-0.7-2.4-1.7-3c-1-0.7-2.2-0.8-3.3-0.6
	c-1.8,0.2-3,1.3-3.4,3.1c0,0.2-0.1,0.3-0.1,0.5C195,40.6,197.8,40.6,200.7,40.6z"/>
<path class="st0" d="M214,24.4c-0.9,0-1.8,0-2.8,0c0-4.7,0-9.4,0-14.1c0.9,0,1.8,0,2.8,0c0,0.8,0,1.5,0,2.4c0.2-0.4,0.4-0.7,0.6-1
	c0.6-0.8,1.4-1.3,2.4-1.5c1.3-0.3,2.5-0.3,3.8,0.1c1.7,0.5,2.8,1.7,3.2,3.4c0.2,0.8,0.3,1.7,0.4,2.6c0,2.6,0,5.2,0,7.7
	c0,0.1,0,0.2,0,0.3c-0.9,0-1.8,0-2.8,0c0-0.1,0-0.2,0-0.4c0-2.4,0-4.8,0-7.2c0-0.7-0.1-1.4-0.3-2.1c-0.4-1.3-1.3-2-2.6-2.2
	c-0.7-0.1-1.4-0.1-2,0.1c-1.3,0.3-2,1.2-2.3,2.4c-0.2,0.8-0.3,1.7-0.3,2.5c0,2.1,0,4.3,0,6.4C214,24.1,214,24.2,214,24.4z"/>
<path class="st0" d="M121.1,13.3c-0.9,0.2-1.6,0.5-2.4,0.7c-0.1,0-0.2,0-0.2-0.1c-0.8-1.1-1.9-1.4-3.1-1.5c-0.8,0-1.6,0-2.3,0.3
	c-0.6,0.3-1,0.6-1.1,1.3c-0.1,0.6,0.2,1.2,0.9,1.4c0.8,0.3,1.7,0.4,2.5,0.6c1.1,0.2,2.2,0.4,3.2,0.7c1.5,0.4,2.6,1.4,2.7,3
	c0.2,1.8-0.5,3.1-2.1,4c-1.1,0.6-2.3,0.9-3.5,0.9c-1.6,0.1-3.2-0.2-4.6-0.9c-1.1-0.6-2-1.4-2.5-2.5c0-0.1,0-0.1-0.1-0.2
	c0.8-0.2,1.6-0.4,2.4-0.6c0.1,0,0.2,0,0.2,0.1c0.9,1.4,2.3,1.8,3.8,1.8c0.8,0,1.6,0,2.3-0.3c0.9-0.3,1.3-0.9,1.3-1.7
	c0-0.5-0.2-0.8-0.6-1.1c-0.6-0.4-1.4-0.6-2.1-0.7c-1.3-0.3-2.6-0.5-3.9-0.8c-0.9-0.2-1.7-0.7-2.2-1.5c-1.1-1.7-0.6-4,1.2-5.1
	c1.6-1,3.3-1.2,5.2-1c1.6,0.2,3,0.8,4.1,2C120.5,12.4,120.8,12.8,121.1,13.3z"/>
<path class="st0" d="M205.5,45.7c0.8-0.2,1.6-0.4,2.4-0.6c0.1,0,0.2,0,0.2,0.1c0.7,1.1,1.7,1.6,2.9,1.8c1,0.2,2,0.1,3-0.2
	c0.7-0.2,1.3-0.6,1.4-1.4c0.1-0.7-0.1-1.2-0.7-1.5c-0.6-0.3-1.3-0.5-2-0.6c-1.2-0.3-2.3-0.4-3.5-0.7c-1-0.2-1.8-0.7-2.5-1.5
	c-1.3-1.7-0.8-4.2,1.2-5.3c1.1-0.6,2.2-0.9,3.4-1c1.9-0.1,3.6,0.3,5.1,1.5c0.6,0.5,1.2,1.1,1.4,1.8c-0.5,0.1-1,0.3-1.5,0.4
	c-0.6,0.2-1,0.2-1.5-0.3c-0.5-0.6-1.3-0.9-2.1-1c-1-0.1-2-0.1-2.9,0.3c-0.8,0.3-1.2,1.1-1,1.8c0.1,0.5,0.5,0.8,1,0.9
	c0.6,0.2,1.3,0.4,1.9,0.5c1.3,0.2,2.6,0.3,3.9,0.8c1.2,0.4,2.2,1.2,2.5,2.5c0.5,2-0.4,3.8-2.3,4.7c-1.7,0.8-3.5,0.9-5.3,0.6
	c-1.5-0.2-2.8-0.8-3.9-1.8C206.2,46.9,205.8,46.3,205.5,45.7z"/>
<path class="st0" d="M108.6,45.7c0.8-0.2,1.6-0.4,2.4-0.7c0.1,0,0.2,0,0.2,0.1c0.9,1.4,2.3,1.8,3.9,1.8c0.9,0,1.7,0,2.5-0.5
	c0.2-0.1,0.5-0.3,0.7-0.5c0.6-0.8,0.4-1.7-0.4-2.2c-0.7-0.4-1.6-0.5-2.4-0.6c-1.2-0.2-2.4-0.3-3.6-0.8c-0.4-0.2-0.8-0.4-1.2-0.6
	c-1.8-1.1-2.3-4.4,0.3-6c1.3-0.8,2.8-1.1,4.4-1c1.8,0.1,3.4,0.6,4.7,1.9c0.4,0.4,0.7,0.8,1,1.4c-0.1,0-0.1,0.1-0.2,0.1
	c-0.7,0.2-1.4,0.4-2.1,0.6c-0.1,0-0.3,0-0.3-0.1c-0.7-0.9-1.6-1.3-2.7-1.4c-0.9-0.1-1.7-0.1-2.6,0.2c-0.3,0.1-0.5,0.2-0.7,0.4
	c-0.8,0.7-0.7,1.8,0.2,2.3c0.8,0.4,1.7,0.5,2.6,0.6c1.2,0.2,2.4,0.3,3.6,0.8c1.4,0.5,2.3,1.4,2.5,2.9c0.2,1.6-0.3,2.9-1.7,3.8
	c-0.8,0.6-1.8,0.9-2.8,1c-1.9,0.3-3.8,0.2-5.5-0.7c-1.2-0.6-2.1-1.4-2.7-2.6C108.6,45.9,108.6,45.8,108.6,45.7z"/>
<path class="st0" d="M187.1,39.5c-0.7,0.2-1.5,0.3-2.2,0.4c-0.1,0-0.2-0.1-0.2-0.2c-0.3-0.6-0.6-1.2-1.1-1.7
	c-1.3-1.3-4.5-1.6-6.2,0.6c-1.4,1.8-1.4,5,0,6.8c2,2.5,6,1.9,7.1-1c0-0.1,0.1-0.2,0.1-0.4c0.8,0.2,1.6,0.3,2.4,0.5
	c-0.3,1.1-0.8,2.1-1.5,2.9c-1.3,1.3-2.9,1.9-4.7,2c-2.3,0.1-4.2-0.7-5.7-2.4c-1-1.2-1.5-2.6-1.6-4.1c-0.1-1.8,0.1-3.5,1.1-5
	c1.3-2,3.2-3,5.6-3.1c1.2-0.1,2.5,0.1,3.6,0.6c1.6,0.7,2.5,2,3.1,3.6c0,0.1,0.1,0.3,0.1,0.4C187.1,39.4,187.1,39.5,187.1,39.5z"/>
<path class="st0" d="M149.7,35c0.2,0,0.3,0,0.4,0c0.8,0,1.5,0,2.3,0c0.3,0,0.4,0.1,0.5,0.3c1.4,3.5,2.9,7,4.3,10.5
	c0,0.1,0.1,0.1,0.1,0.2c0.4-1,0.8-2,1.2-3c1.1-2.6,2.1-5.2,3.2-7.9c0-0.1,0.1-0.2,0.2-0.2c1,0,1.9,0,2.9,0c0,0.1-0.1,0.2-0.1,0.3
	c-2,4.6-4,9.1-6,13.7c-0.1,0.2-0.2,0.2-0.4,0.2c-0.7,0-1.5,0-2.2,0c-0.2,0-0.3-0.1-0.4-0.3c-1.6-3.7-3.2-7.3-4.8-11
	c-0.4-0.9-0.7-1.7-1.1-2.6C149.8,35.2,149.8,35.1,149.7,35z"/>
<path class="st0" d="M125.2,12.4c-0.7,0-1.4,0-2,0c0-0.7,0-1.4,0-2.1c0.7,0,1.3,0,2,0c0-0.1,0-0.3,0-0.4c0-0.7,0-1.3,0-2
	c0-0.2,0.1-0.3,0.3-0.3c0.8-0.2,1.6-0.3,2.5-0.5c0,1.1,0,2.1,0,3.2c1.4,0,2.8,0,4.2,0c0,0.7,0,1.4,0,2.2c-1.4,0-2.8,0-4.1,0
	c0,0.1,0,0.2,0,0.2c0,2.2,0,4.4,0,6.7c0,0.5,0.1,1.1,0.3,1.6c0.3,0.9,1,1.4,2,1.5c0.6,0,1.1,0,1.7,0c0.1,0.6,0.2,1.3,0.4,2.1
	c-0.4,0.1-0.8,0.1-1.2,0.1c-0.9,0.1-1.8,0-2.6-0.1c-1.8-0.4-2.9-1.5-3.2-3.3c-0.1-0.7-0.2-1.4-0.2-2.2c0-2,0-4.1,0-6.1
	C125.2,12.7,125.2,12.6,125.2,12.4z"/>
<path class="st0" d="M143.9,49.3c-1,0-1.8,0-2.8,0c0-4.7,0-9.4,0-14.1c0.9,0,1.8,0,2.8,0c0,0.7,0,1.4,0,2.2c1.3-1.9,2.7-2.6,4.7-2.3
	c-0.1,0.9-0.2,1.7-0.2,2.6c-0.3,0-0.5,0-0.7-0.1c-2-0.1-3.2,0.9-3.6,2.9c-0.1,0.5-0.1,1.1-0.1,1.6c0,2.2,0,4.5,0,6.7
	C143.9,49,143.9,49.1,143.9,49.3z"/>
<path class="st0" d="M138.4,24.6c-0.9,0-1.8,0-2.7,0c0-4.7,0-9.4,0-14.1c0.9,0,1.8,0,2.7,0c0,0.7,0,1.4,0,2.1c0.5-0.9,1.1-1.6,2.1-2
	c0.9-0.4,1.9-0.4,2.9-0.3c-0.1,0.9-0.2,1.8-0.3,2.6c-0.5,0-1,0-1.5,0c-1.5,0.1-2.5,1-2.9,2.6c-0.2,0.8-0.2,1.5-0.3,2.3
	c0,2.1,0,4.2,0,6.3C138.4,24.3,138.4,24.4,138.4,24.6z"/>
<path class="st0" d="M207.1,10.5c0,4.7,0,9.4,0,14.1c-0.9,0-1.8,0-2.7,0c0-4.7,0-9.4,0-14.1C205.3,10.5,206.2,10.5,207.1,10.5z"/>
<path class="st0" d="M167.4,35.1c0.9,0,1.8,0,2.7,0c0,4.7,0,9.4,0,14.1c-0.9,0-1.8,0-2.7,0C167.4,44.5,167.4,39.8,167.4,35.1z"/>
<path class="st0" d="M168.7,33.1c-1.2,0-1.9-0.9-1.6-1.9c0.2-0.6,0.7-1,1.5-1c1.1-0.1,1.9,0.8,1.7,1.8
	C170.2,32.6,169.6,33.1,168.7,33.1z"/>
<path class="st0" d="M207.2,6.9c0,1-0.5,1.5-1.5,1.5c-0.5,0-1-0.2-1.4-0.5c-0.4-0.4-0.5-0.9-0.3-1.4c0.2-0.6,0.7-0.9,1.3-1
	c0.1,0,0.3,0,0.4,0C206.7,5.4,207.2,6,207.2,6.9z"/>
<path class="st0" d="M20.7,28.2c-0.1,2.2-0.2,4.4-0.2,6.6c-1.1-0.4-2.2-0.9-3.1-1.5c-1.2-0.7-2.2-1.5-3.2-2.5c0,0,0,0,0,0
	c-0.6-0.6-0.5-1.1,0.3-1.4c1.1-0.5,2.3-0.7,3.5-0.9c0.8-0.1,1.6-0.2,2.4-0.3C20.4,28.2,20.5,28.2,20.7,28.2z"/>
<path class="st0" d="M82.9,33.6c0.6-0.9,1.1-1.8,1.7-2.6c0.6-0.9,1.3-1.7,2-2.5c0.1-0.2,0.3-0.3,0.5-0.4c0.2-0.2,0.5-0.1,0.5,0.2
	c0.1,0.4,0.1,0.8,0,1.1c-0.5,2.3-1.9,3.6-4.2,4.2C83.3,33.7,83.2,33.7,82.9,33.6C83,33.7,82.9,33.7,82.9,33.6z"/>
<path class="st0" d="M43.3,20.7c0.5-0.5,0.9-1.1,1.4-1.6c0.8-0.8,1.8-1.6,2.9-2c0.3-0.1,0.7-0.2,1-0.2c0.4,0,0.7,0.2,0.7,0.6
	c0,0.3-0.1,0.7-0.2,1c-0.9,1.6-2.4,2.3-4.2,2.4c-0.5,0-1,0-1.5,0C43.3,20.8,43.3,20.8,43.3,20.7z"/>
<path class="st0" d="M41.3,19.7c0-0.2-0.1-0.4,0-0.5c0.2-1.2,1.6-2.4,3-2.5c-1.2,0.9-2.1,1.9-2.8,3C41.3,19.7,41.3,19.7,41.3,19.7z"
	/>
</svg>
