<?xml version="1.0" encoding="utf-8"?>
<!-- Generator: Adobe Illustrator 23.0.1, SVG Export Plug-In . SVG Version: 6.00 Build 0)  -->
<svg version="1.1" id="Layer_1" xmlns="http://www.w3.org/2000/svg" xmlns:xlink="http://www.w3.org/1999/xlink" x="0px" y="0px"
	 viewBox="0 0 894.3 223" style="enable-background:new 0 0 894.3 223;" xml:space="preserve">
<style type="text/css">
	.st0{fill:#FFFFFF;}
</style>
<g>
	<path class="st0" d="M270.9,0c-17,0-47,19.4-47,63h441.8c6-64.7-39.6-63-39.6-63S280.3,0,270.9,0L270.9,0z M220.1,86
		c0,0,0,13.4,0,20.4c0,13.8,13.8,30.7,34.9,30.7c13.2,0,107.1,0.1,107.1,0.1l-3.4,26.3H213.7L206,223c0,0,154.5,0,169.9,0
		c14.3,0,47.5-11.5,53.2-45.5c0,0,6.6-55.8,6.8-57.9c0.9-10.8-5.8-33.6-35.2-33.6C385.4,86,220.1,86,220.1,86L220.1,86z M451.2,86
		h212l-4.7,23.8c0,0-4.7,27.2-37.5,27.2c-32.8,0-103.9,0-103.9,0l-9.8,86h-71.9L451.2,86L451.2,86z M674.3,63h217.5
		c9.8-42.1-10.6-63-31.9-63c-25.2,0-86.6,0-177.5,0L674.3,63L674.3,63z M727.9,223H656l15.7-137h72.8L727.9,223L727.9,223z
		 M872.6,223h-71.9l15.8-137h72.8L872.6,223L872.6,223z M16.2,86h194.5l-6.4,51.1H84.7l-3.8,26.4h120l-7.2,59.6H0L16.2,86L16.2,86z
		 M26,0h194.5l-8.3,63h-193L26,0L26,0z"/>
</g>
</svg>
