<?xml version="1.0" encoding="utf-8"?>
<!-- Generator: Adobe Illustrator 23.0.1, SVG Export Plug-In . SVG Version: 6.00 Build 0)  -->
<svg version="1.1" id="Layer_1" xmlns="http://www.w3.org/2000/svg" xmlns:xlink="http://www.w3.org/1999/xlink" x="0px" y="0px"
	 viewBox="0 0 145.7 59.7" style="enable-background:new 0 0 145.7 59.7;" xml:space="preserve">
<style type="text/css">
	.st0{fill-rule:evenodd;clip-rule:evenodd;fill:#FFFFFF;}
</style>
<path class="st0" d="M135.3,27.8h-5.7V5.2h5.4v2.5c0.7-1.5,2.4-2.9,4.5-3c3.7-0.2,6.2,2,6.2,6.7v16.3h-5.9v-17c0-2,0-3.7-1.3-4
	c-0.5-0.2-1.3,0-2,0.5c-0.8,0.8-1.2,1.9-1.2,3.5C135.3,11.1,135.3,27.8,135.3,27.8L135.3,27.8z"/>
<path class="st0" d="M38,6.7c-1.3-1.2-3-2-5-2c-2,0-3.5,0.8-5,2c-2.4,2-3.9,5.7-3.9,9.8c0,4.2,1.5,7.7,3.9,9.8c1.5,1.2,3,2,5,2
	c2,0,3.7-0.8,5-2c2.5-2,3.9-5.6,3.9-9.8C41.9,12.5,40.6,8.8,38,6.7L38,6.7z M35.9,16.5c0,4.2,0,7.6-0.7,9.3c-0.5,0.8-1,1.3-2.2,1.3
	c-1,0-1.7-0.5-2-1.3c-0.8-1.7-0.8-5-0.8-9.3c0-4,0-7.6,0.8-9.3c0.3-0.8,1-1.3,2-1.3c1.2,0,1.7,0.5,2.2,1.3
	C36,8.9,35.9,12.5,35.9,16.5L35.9,16.5z"/>
<path class="st0" d="M96.8,36.3v6.1h-1.2c-0.7-2.5-1.7-4.7-4.4-4.9c-1.7-0.2-3.2,0.8-3.4,2.4c-0.2,1.5,0.3,2.9,3.4,4.5
	c3.9,2.2,6.9,3.2,6.9,7.7c0,4.9-4.2,7.2-7.7,7.2c-1.5,0-6.7,0-6.7,0V51h1.2c0.8,4.4,2.2,7.1,5.4,7.2c2,0,3.5-1.2,3.5-3.4
	c0-2.2-1.3-3.5-4.5-5.4c-3.5-2.2-5.7-3.5-5.7-6.6c0-4,2.9-6.6,7.4-6.6C92.4,36.3,96.8,36.3,96.8,36.3L96.8,36.3z"/>
<path class="st0" d="M104.2,27.8V11.4c0-4.7-2.5-6.9-6.2-6.7c-2.5,0.2-4,1.9-4.7,3.2c-0.8-2.4-2.7-3.4-5.4-3.2
	c-2.2,0.2-3.9,1.5-4.5,3V5.2h-5.2v22.5h5.7c0,0,0-16.5,0-17c0-1.7,0.2-2.7,1.2-3.5c0.7-0.5,1.3-0.7,1.9-0.5c1.3,0.3,1.3,2,1.3,4v17
	h5.7V10.6c0-1.5,0.3-2.5,1.2-3.4c0.7-0.5,1.3-0.7,1.9-0.5c1.3,0.3,1.5,2,1.5,4v17H104.2L104.2,27.8z"/>
<polygon class="st0" points="45.8,0.5 51.7,0.5 51.7,27.8 45.8,27.8 45.8,0.5 "/>
<path class="st0" d="M72.5,27.8V0.5h-5.9v6.4c-0.5-1.2-1.7-2-3.4-2c-4.2,0-7.6,4.4-7.7,11.1c-0.2,4.5,1.3,12.1,7.2,12.1
	c2.4,0,3.7-1.3,4.2-2.5v2.2H72.5L72.5,27.8z M65.6,7.1c1.2,1.7,1.2,5.7,1.2,8.9c0,3.4,0.2,7.7-1.2,9.6c-0.5,0.7-1,1-1.9,1
	c-1.2,0-1.9-1.3-2.2-3.5c-0.2-2-0.2-4.5-0.2-7.2c0-4.5,0.3-9.6,2.5-9.6C64.8,6.2,65.1,6.6,65.6,7.1L65.6,7.1z"/>
<path class="st0" d="M121.7,5.9c1.5,0.8,2.5,2.2,2.5,5.2v16.7h-5.6v-2.5c-0.7,1.9-2.5,3-5,3c-2,0-5.6-1-5.6-6.2
	c0-4.9,3.2-5.9,6.7-7.4c3.2-1.3,3.5-1.5,3.5-2.9c0-1.2,0-2.2,0-3.7c0-1.5-0.8-2.2-2.5-2.2c-0.7,0.2-1.9,0.5-1.9,1.3
	c-0.2,1,1,1,1.2,2.5c0.2,2.4-1.7,3.2-3.4,3c-1.2,0-2.5-0.7-2.7-2.5c-0.2-3,3.2-5.6,7.9-5.6C119.2,4.7,120.5,5.2,121.7,5.9L121.7,5.9
	z M118.3,14.3l-1.9,1.2c-1.9,1.2-2.2,2.7-2.4,4.4c-0.2,1.3-0.2,2.5,0,4.5c0.2,1.9,1.3,2.2,2.4,1.9c1.2-0.5,1.9-2.7,1.9-5
	C118.3,21.2,118.3,15.1,118.3,14.3L118.3,14.3z"/>
<path class="st0" d="M38.4,37.4c1.5,1,2.4,2.2,2.4,5.2v16.8h-5.4v-2.5c-0.7,1.7-2.5,2.9-5,2.9c-2.2,0-5.6-0.8-5.6-6.1
	c0-4.9,3.2-5.9,6.6-7.4c3.4-1.5,3.7-1.7,3.7-2.9c0-1.2,0-2.2,0-3.7c0-1.7-0.8-2.4-2.5-2.2c-0.7,0-1.9,0.3-1.9,1.2
	c-0.2,1.2,1,1.2,1.2,2.7c0.2,2.2-1.7,3-3.4,3c-1.2-0.2-2.5-0.8-2.7-2.7c-0.2-2.9,3.2-5.4,7.9-5.4C35.9,36.3,37.2,36.7,38.4,37.4
	L38.4,37.4z M35,45.8L33.2,47c-1.9,1.2-2.2,2.7-2.4,4.4c-0.2,1.3-0.2,2.7,0,4.5c0,2,1.2,2.4,2.2,1.9c1.3-0.5,2-2.5,2-5
	C35,52.7,35,46.6,35,45.8L35,45.8z"/>
<path class="st0" d="M79.1,43.1c0-4.7-2.5-7.1-6.2-6.7c-1.9,0.2-3.4,1-4.2,2.2V32h-5.7v15.5c0,5.7-4,11.1-8.1,10.9
	c-2.9,0-3.5-2.2-3.9-4.5c-0.5-3.4-0.5-7.2-0.2-11.4c0.3-2.7,1-4.9,3-4.9c1.5,0,1.7,1,1,1.7c-0.7,0.8-1.7,1.7-1.2,3.5
	c0.5,2,3.7,2.4,5.2,0.8c1.2-1.3,1-3.5,0.2-4.9c-1-1.7-2.7-2.4-5.2-2.4c-3.2,0-9.3,2.9-9.3,11.9c0,9.8,6.2,11.4,9.8,11.4
	c4,0,7.6-3.5,8.6-6.4v6.1h5.7v-17c0-1.7,0.3-2.7,1.2-3.5c0.7-0.5,1.5-0.7,2-0.5c1.3,0.3,1.3,2,1.3,4v17h5.9V43.1L79.1,43.1z"/>
<path class="st0" d="M20.2,0v9.6H19c-1-4.7-3.2-8.2-6.2-8.4c-2-0.2-3.2,1-4.2,2.7c-1,2-1.5,6.2-1.5,11.3c0,4.7,0.2,8.2,0.7,10.8
	c0.3,1.2,1.2,3,3.4,3c1.2,0,2-0.3,2.5-1c0.8-1,1-3,1-4.4c0-2.2,0-2.9,0-4.5c0-1.7-0.5-2.7-1.3-3.2c-0.7-0.3-1.7-0.3-2.2-0.5v-1.2
	h9.4v24.1h-1.2c-0.5-1.9-0.8-3.2-1.7-4.7c-0.8-1.5-2.4-3.2-4.9-3.2c-2.7-0.2-4.7,1.5-4.7,4c0,3.4,2,4.2,5.7,6.2
	c3.5,2,8.1,3.7,8.1,9.6c0,5.7-4.9,9.3-10.4,9.3c-1.2,0-8.9,0-8.9,0V47.8h1.2c1.5,8.7,5.2,10.3,7.7,10.3c3.2,0,4.7-2,4.7-4.9
	c-0.2-3.7-2.7-5-6.2-6.9c-5-2.9-7.4-4.2-7.4-8.9c0.2-4,3.4-6.6,6.9-7.6C2,28.9-0.2,22.2,0,15C0,7.7,4.2,0,12.5,0
	C16.2,0,20.2,0,20.2,0L20.2,0z"/>
</svg>
