<?xml version="1.0" encoding="utf-8"?>
<!-- Generator: Adobe Illustrator 26.0.2, SVG Export Plug-In . SVG Version: 6.00 Build 0)  -->
<svg version="1.1" id="Layer_1" xmlns="http://www.w3.org/2000/svg" xmlns:xlink="http://www.w3.org/1999/xlink" x="0px" y="0px"
	 viewBox="0 0 212.8 146.6" style="enable-background:new 0 0 212.8 146.6;" xml:space="preserve">
<style type="text/css">
	.st0{fill:#130D0A;}
	.st1{fill:#F16423;}
	.st2{fill:#F2AE86;}
	.st3{fill:#F0AD86;}
	.st4{fill:#EE6523;}
	.st5{fill:#EFAB84;}
	.st6{fill:#EF3F24;}
	.st7{fill:#0E0D0D;}
	.st8{fill:#FBFBFC;}
	.st9{fill:#4C565B;}
	.st10{fill:#E52129;}
	.st11{fill:#25BAEB;}
	.st12{fill:#AAA9A8;}
	.st13{fill:#FCC53E;}
	.st14{fill:#CBCBCB;}
	.st15{fill:#DDDDDD;}
</style>
<image style="overflow:visible;enable-background:new    ;" width="611" height="604" xlink:href="DE235741.png"  transform="matrix(0.24 0 0 0.24 62.79 1.68)">
</image>
<path class="st0" d="M116.6,86.3c-1.5,0.1-2.9-0.4-4.1-1.4c-2.1-1.8-2.2-5-0.4-7.1c0.2-0.2,0.4-0.4,0.6-0.6c0.3-0.2,0.3-0.3,0.1-0.6
	c-1.9-2-1.8-5.1,0.2-6.9c0.3-0.3,0.7-0.6,1.2-0.8c0.5-0.2,0.6-0.4,0.4-0.9c-0.7-2.1-0.8-4.3-0.4-6.4c0.6-3.3,2.3-6.2,4.8-8.4
	c2.5-2.2,5.8-3.5,9.1-3.5c5.5,0,10.9-0.1,16.4,0.1c6.3,0.3,11.7,4.6,13.3,10.6c0.7,2.6,0.6,5.3-0.3,7.8c-0.1,0.4,0.1,0.5,0.4,0.6
	c2.4,1.2,3.5,4,2.4,6.4c-0.2,0.5-0.5,1-0.9,1.4c-0.3,0.2-0.4,0.3,0,0.6c1.6,1,2.3,2.9,1.9,4.8c-0.3,1.9-1.8,3.5-3.7,4
	c-0.6,0.1-1.2,0.2-1.9,0.3c0.5,0.4,0.9,0.7,1.3,1.1c1.2,0.8,2.1,1.9,2.6,3.3c0.6,1.8,0.1,3.7-1.3,4.9c-1.3,1.3-3.2,1.8-5,1.3
	c-0.7-0.2-1.3-0.5-1.8-1c-0.8,1.6-2.3,2.6-4.1,2.8c-1.8,0.2-3.5-0.6-4.6-2c-1.4-1.7-2.8-3.4-4.1-5.2c-0.2-0.3-0.6-0.5-1-0.5
	c-1,0-2.1,0-3.1,0c-0.4,0-0.8,0.2-1.1,0.5c-1.3,1.7-2.7,3.4-4,5.1c-1.6,2.4-4.9,2.9-7.2,1.3c0,0-0.1,0-0.1-0.1
	c-0.6-0.4-1.1-1-1.4-1.6c-0.1-0.3-0.2-0.3-0.5-0.1c-2.1,1.7-5.2,1.3-6.9-0.8c0,0-0.1-0.1-0.1-0.1c-1.7-2.2-1.3-5.3,0.9-7
	C115.1,87.5,115.8,87,116.6,86.3z M119.9,78.9c0,0.4-0.3,0.3-0.5,0.3h-3c-1-0.1-1.9,0.5-2.2,1.3c-0.4,1.4,0.5,2.6,2.2,2.6
	c2.4,0,4.7,0,7.1,0c0.3,0.1,0.6,0.3,0.7,0.7c-0.8,0-1.6,0.4-2.1,1c-0.8,0.8-1.6,1.6-2.4,2.4c-1.1,1.2-2.3,2.3-3.4,3.5
	c-0.7,0.7-0.7,1.7-0.1,2.5c0.7,0.9,2,1,2.8,0.3c0.1-0.1,0.2-0.2,0.3-0.3c1.7-1.6,3.3-3.3,5-5c0.3-0.3,0.7-0.5,1.1-0.5
	c0.8,0,1.6,0,2.4,0c0.4,0.5-0.2,0.6-0.4,0.9c-1.1,1.2-2.3,2.4-3.4,3.7c-0.7,0.7-0.7,1.9,0,2.7c0,0,0.1,0.1,0.1,0.1
	c0.8,0.7,2,0.7,2.7-0.1c0,0,0.1-0.1,0.1-0.1c1.9-2.3,3.7-4.6,5.5-6.9c0.3-0.1,0.7-0.1,1-0.1h5.7c0.3,0,0.7,0,1,0.1
	c1.8,2.3,3.6,4.6,5.5,6.9c0.2,0.2,0.3,0.3,0.6,0.5c0.8,0.4,1.9,0.3,2.5-0.4c0.7-0.8,0.6-2-0.2-2.7l-3.4-3.8
	c-0.2-0.2-0.4-0.3-0.3-0.7c0.9,0,1.7,0,2.6,0c0.4,0,0.7,0.1,1,0.4c1.6,1.6,3.2,3.2,4.8,4.8c0.2,0.2,0.5,0.5,0.8,0.6
	c0.8,0.4,1.7,0.3,2.4-0.3c0.6-0.6,0.7-1.6,0.2-2.4c-0.2-0.3-0.4-0.5-0.6-0.7c-1.8-1.8-3.6-3.6-5.4-5.5c-0.5-0.6-1.3-0.9-2.1-0.9
	c0-0.4,0.3-0.6,0.7-0.7h7.1c0.1,0,0.2-0.1,0.3-0.1c1,0,1.8-0.8,1.9-1.8c0-1-0.7-1.8-1.7-2c-0.7-0.1-1.5,0-2.2-0.1
	c-0.7,0-1.4,0-2.1-0.1c0.7-0.6,1.2-1.1,1.8-1.6c0.9-0.8,1.9-1.6,2.8-2.5c0.9-0.6,1-1.9,0.4-2.7c-0.2-0.2-0.4-0.4-0.6-0.5
	c-0.9-0.4-1.9-0.2-2.5,0.5l-2.7,2.7c-0.4-0.5-0.6-1.1-0.8-1.7c3-2.1,4.7-5.5,4.7-9.1c0-0.1,0-0.3,0-0.4c-0.2-4.4-3-8.3-7.1-9.9
	c-1.5-0.7-3.1-0.9-4.7-0.8h-5.7c1.4,1.2,2.8,2.3,4.2,3.4c0.5,0.4,1.1,0.6,1.4,1.2c-1.3,0-2.6,0-3.9,0c-0.4,0-0.6,0.1-0.5,0.6
	c0.1,0.7,0.3,1.4,0.8,2c1.2,1.4,2.8,2.3,4.6,2.6c1.5,0.3,3,0.5,4.5,0.4c0.6,0,1.2,0,1.4,0.7s-0.1,1.1-0.5,1.6l-0.4,0.4l-3.5,3.7
	c-0.3,0-0.5,0-0.8-0.1c-0.9-0.4-1.8-0.6-2.8-0.7c-0.8-0.1-1.1-0.4-1.1-1.2c0.1-1-0.7-1.9-1.7-2c-0.1,0-0.1,0-0.2,0
	c-1,0-1.9,0.8-1.9,1.9c-0.1,1.2-0.1,1.2-1.3,1.2h-0.1c-0.7,0.1-0.9-0.2-0.9-0.8c0-0.3,0-0.5-0.1-0.8c-0.2-0.9-1.1-1.6-2-1.4
	c-1,0-1.7,0.8-1.8,1.7c0,0.2,0,0.5,0,0.7c0,0.4-0.1,0.6-0.6,0.6c-1.2,0.1-2.4,0.4-3.5,0.9c-0.2,0-0.4,0.1-0.6,0.1
	c-0.4-0.5-0.9-0.9-1.3-1.4c-0.9-1-1.8-1.9-2.7-2.9c-0.5-0.4-0.6-1.1-0.2-1.6c0.3-0.3,0.7-0.5,1.1-0.5c0.4,0,0.7,0,1.1,0
	c2.2,0,4.4-0.5,6.4-1.4c1.3-0.7,2.2-1.8,2.6-3.2c0.2-0.7,0-0.9-0.7-0.9c-1.2,0.1-2.4,0.1-3.7-0.1c0,0,0,0,0-0.1l5.7-4.2v-0.2H129
	c-0.5-0.2-0.9,0-1.4,0c-4.7,0.3-8.7,3.6-10,8.1c-0.4,1.1-0.5,2.2-0.4,3.4c0.1,3.5,1.8,6.7,4.6,8.8c-0.2,0.6-0.4,1.2-0.8,1.7
	c-1-1-1.9-2-3-2.9c-0.8-0.7-2-0.7-2.8,0.1c-0.7,0.7-0.8,2,0,2.7c0,0,0.1,0.1,0.2,0.1C116.8,76.3,118.4,77.6,119.9,78.9L119.9,78.9z"
	/>
<path class="st1" d="M148.9,83.1c-0.4,0.1-0.6,0.3-0.7,0.7c-1.3,1.1-2.6,2.3-3.7,3.6c-0.4,0.3-0.8,0.5-1.3,0.4c-1.1,0-2.1,0-3.2,0
	c-0.3-0.1-0.7-0.1-1-0.1h-5.6c-0.3,0-0.7,0-1,0.1c-1,0-2-0.1-3,0c-0.6,0.1-1.3-0.1-1.7-0.6c-1.1-1.2-2.3-2.4-3.5-3.5
	c-0.1-0.4-0.4-0.6-0.7-0.7c-0.7-0.9-1.5-1.8-2.4-2.5c-0.5-0.4-0.8-1-0.8-1.7c0.1-1.4,0.4-2.7,0.8-4c0.4-0.5,0.6-1.1,0.8-1.7
	c0.7-0.8,1.5-1.6,2.3-2.4c0.8-0.6,1.7-0.9,2.4-1.5c0.2,0,0.4,0,0.6-0.1c1.1-0.5,2.3-0.8,3.5-0.9c0.4-0.1,0.6-0.2,0.6-0.7
	c0-0.2,0-0.5,0-0.7c0.1-1,0.8-1.7,1.8-1.7c0.9-0.1,1.8,0.5,2,1.4c0.1,0.3,0.1,0.5,0.1,0.8c-0.1,0.7,0.2,0.9,0.9,0.8h0.1
	c1.2,0,1.2,0,1.3-1.2c0-1.1,0.9-1.9,1.9-1.9c1,0,1.9,0.8,1.9,1.8c0,0.1,0,0.1,0,0.2c0,0.9,0.3,1.2,1.1,1.2c1,0.1,1.9,0.3,2.8,0.7
	c0.2,0.1,0.5,0.2,0.8,0.1c0.1,0.1,0.2,0.2,0.3,0.2c1.8,0.8,3.3,2.1,4.4,3.7c0.2,0.6,0.5,1.1,0.8,1.7c0.4,1.3,0.7,2.6,0.8,4v0.9
	c-0.9,1-2.1,1.9-2.9,3.1C149,82.8,149,83,148.9,83.1z M131.5,73c-1.9,0-3.5,1.5-3.6,3.4c0,0,0,0,0,0c0,1.9,1.5,3.6,3.5,3.6
	c1.9,0,3.6-1.5,3.6-3.5C135,74.6,133.5,73,131.5,73C131.5,73,131.5,73,131.5,73z M141.2,81.9c0-1.5-1.1-2.7-2.6-2.7c0,0-0.1,0-0.1,0
	c-1.5,0-2.8,1.2-2.8,2.7c-0.1,1.4,1,2.7,2.5,2.7c0.1,0,0.2,0,0.3,0c1.4,0.1,2.6-1,2.7-2.5C141.2,82.1,141.2,82,141.2,81.9z
	 M145.9,78.1c0-1.1-0.8-2-1.9-2c0,0,0,0-0.1,0c-1,0.1-1.9,0.9-2,1.9c0,1.1,0.8,2,1.9,2.1C144.9,80,145.8,79.2,145.9,78.1z"/>
<path class="st2" d="M126.5,69.4c-0.8,0.6-1.6,0.9-2.4,1.5c-0.8,0.7-1.6,1.5-2.3,2.4c-2.8-2-4.6-5.3-4.6-8.8
	c0.3-0.6,0.6-1.1,0.9-1.7c0.9-2.2,2.9-3.8,5.2-4.2c1.5-0.3,3-0.3,4.5-0.3c0.8,0,1.2-0.1,1.2-1c1.2,0.1,2.4,0.2,3.7,0.1
	c0.7,0,0.9,0.2,0.7,0.9c-0.4,1.4-1.3,2.6-2.6,3.2c-2,1-4.2,1.4-6.4,1.4c-0.4,0-0.7,0-1.1,0c-0.6-0.1-1.2,0.3-1.3,1
	c-0.1,0.4,0.1,0.9,0.5,1.1c0.9,1,1.8,1.9,2.7,2.9C125.6,68.4,126,68.9,126.5,69.4z"/>
<path class="st2" d="M150.5,73.2c-1.1-1.6-2.6-2.8-4.4-3.6c-0.1-0.1-0.2-0.1-0.3-0.2l3.5-3.7l0.4-0.4c0.4-0.5,0.8-0.9,0.5-1.6
	s-0.9-0.7-1.4-0.7c-1.5,0-3-0.1-4.5-0.4c-1.8-0.3-3.5-1.2-4.6-2.6c-0.4-0.6-0.7-1.3-0.8-2c0-0.4,0.1-0.6,0.5-0.6c1.3,0,2.6,0,3.9,0
	l0.1,0.1c0,0.6,0.3,0.8,0.9,0.8c1.3,0,2.6,0,3.9,0.1c2.8,0.2,5,1.4,5.9,4.3c0.2,0.6,0.6,1.1,1.1,1.3
	C155.2,67.7,153.5,71.1,150.5,73.2z"/>
<path class="st3" d="M149.2,82.8c0.9-1.1,2-2,2.9-3.1c0.5-0.3,0-0.6,0-0.9c-0.1-1.4-0.4-2.7-0.8-4l2.8-2.6c0.6-0.7,1.7-0.9,2.5-0.5
	c0.9,0.5,1.3,1.7,0.8,2.6c-0.1,0.2-0.3,0.5-0.5,0.6c-0.9,0.8-1.9,1.7-2.8,2.5c-0.6,0.5-1.2,1-1.8,1.6c0.7,0.1,1.4,0.2,2.1,0.1
	c0.7,0,1.5,0,2.2,0.1c1,0.2,1.7,1,1.7,2c-0.1,1-0.9,1.7-1.9,1.7c-0.2-0.3-0.5-0.2-0.8-0.2C153.4,82.8,151.4,82.8,149.2,82.8z"/>
<path class="st4" d="M129,57.4c0,0.8-0.5,1-1.2,1c-1.5-0.1-3,0-4.5,0.3c-2.3,0.4-4.3,2-5.2,4.2c-0.3,0.6-0.6,1.1-0.9,1.7
	c-0.1-1.1,0-2.3,0.4-3.4c1.3-4.6,5.3-7.8,10-8.1c0.5,0,0.9-0.3,1.4,0c0,0.6,0,1.1,0,1.7C128.9,55.6,128.9,56.5,129,57.4
	C129,57.4,129,57.4,129,57.4z"/>
<path class="st4" d="M155.2,64.1c-0.5-0.3-0.9-0.7-1.1-1.3c-0.9-2.9-3.1-4.1-5.9-4.3c-1.3-0.1-2.6-0.2-3.9-0.1
	c-0.6,0-0.9-0.2-0.9-0.8c0-1.5,0-3.1,0-4.6c1.6-0.1,3.2,0.2,4.7,0.8c4.1,1.7,6.8,5.5,7.1,9.9C155.2,63.8,155.2,63.9,155.2,64.1z"/>
<path class="st3" d="M124.1,83.8c1.3,1.1,2.5,2.2,3.5,3.5v0.4c-0.8,0-1.6,0.1-2.4,0c-0.4,0-0.8,0.2-1.1,0.5c-1.7,1.7-3.3,3.3-5,5
	c-0.7,0.9-2,1-2.8,0.3c-0.1-0.1-0.2-0.2-0.3-0.3c-0.6-0.7-0.6-1.8,0.1-2.5c1.1-1.2,2.3-2.4,3.4-3.5c0.8-0.8,1.6-1.6,2.4-2.4
	C122.5,84.2,123.3,83.8,124.1,83.8z"/>
<path class="st2" d="M144.5,87.4c1.1-1.3,2.4-2.5,3.7-3.6c0.8,0,1.5,0.4,2.1,1c1.8,1.8,3.6,3.6,5.4,5.5c0.2,0.2,0.4,0.5,0.6,0.7
	c0.5,0.7,0.4,1.7-0.2,2.4c-0.6,0.6-1.6,0.8-2.4,0.3c-0.3-0.2-0.6-0.4-0.8-0.6c-1.6-1.6-3.2-3.2-4.8-4.8c-0.3-0.3-0.6-0.4-1-0.4
	c-0.9,0-1.7,0-2.6,0L144.5,87.4z"/>
<path class="st5" d="M144.5,87.4v0.3c-0.1,0.3,0.1,0.5,0.3,0.7l3.4,3.7c0.8,0.7,0.9,1.9,0.2,2.7c-0.6,0.7-1.6,0.9-2.5,0.4
	c-0.2-0.1-0.4-0.3-0.6-0.5c-1.8-2.3-3.7-4.6-5.5-6.9c1.1,0,2.1-0.1,3.2,0C143.7,87.9,144.2,87.7,144.5,87.4z"/>
<path class="st5" d="M127.6,87.7v-0.4c0.5,0.4,1.1,0.6,1.7,0.6c1,0,2,0,3,0c-1.8,2.3-3.6,4.6-5.5,6.9c-0.7,0.8-1.9,1-2.7,0.3
	c0,0-0.1-0.1-0.1-0.1c-0.8-0.7-0.9-1.9-0.2-2.6c0,0,0.1-0.1,0.1-0.1c1.1-1.2,2.3-2.4,3.4-3.7C127.4,88.4,128,88.2,127.6,87.7z"/>
<path class="st5" d="M120.2,78.9c-0.1,0.7,0.2,1.3,0.8,1.7c0.9,0.8,1.7,1.6,2.4,2.5c-2.4,0-4.7,0.1-7.1,0c-1.7,0-2.6-1.2-2.2-2.6
	c0.4-0.9,1.3-1.4,2.2-1.3h3c0.2,0,0.5,0.1,0.5-0.3H120.2z"/>
<path class="st3" d="M120.2,78.9h-0.3c-1.5-1.3-3.1-2.6-4.6-4c-0.8-0.7-0.9-1.9-0.3-2.7c0,0,0.1-0.1,0.1-0.1c0.8-0.8,2-0.8,2.8-0.1
	c1,0.9,2,1.9,3,2.9C120.6,76.2,120.3,77.5,120.2,78.9z"/>
<path class="st5" d="M143.4,52.9c0,1.5,0,3.1,0,4.6l-0.1-0.1c-0.3-0.6-0.9-0.8-1.4-1.2c-1.4-1.1-2.8-2.1-4.2-3.4H143.4z"/>
<path class="st5" d="M129,57.3c-0.2-0.9-0.2-1.8-0.1-2.7c0-0.6,0-1.1,0-1.7h5.7v0.2L129,57.3z"/>
<path class="st5" d="M149.2,82.8c2.1,0,4.2,0,6.4,0c0.3,0,0.6-0.1,0.8,0.2c-0.1,0-0.2,0.1-0.3,0.1h-7.1C149,83,149,82.8,149.2,82.8z
	"/>
<path class="st6" d="M131.5,73c1.9,0,3.5,1.6,3.5,3.6s-1.6,3.5-3.6,3.5c-1.9,0-3.5-1.6-3.5-3.6C127.9,74.5,129.5,73,131.5,73
	C131.5,73,131.5,73,131.5,73z"/>
<path class="st6" d="M141.2,81.9c0.1,1.4-1,2.6-2.4,2.7c-0.1,0-0.2,0-0.3,0c-1.4,0.1-2.7-1-2.8-2.5c0-0.1,0-0.2,0-0.3
	c0-1.5,1.3-2.7,2.8-2.7C140,79.2,141.2,80.4,141.2,81.9C141.2,81.9,141.2,81.9,141.2,81.9z"/>
<path class="st6" d="M145.9,78.1c0,1.1-0.9,2-2,2c0,0,0,0-0.1,0c-1.1-0.1-1.9-1-1.9-2.1c0.1-1,1-1.8,2-1.9
	C145,76.1,145.8,76.9,145.9,78.1C145.9,78,145.9,78,145.9,78.1z"/>
<path class="st5" d="M152.1,78.9c0,0.3,0.5,0.6,0,0.9C152.1,79.5,152.1,79.2,152.1,78.9z"/>
<image style="overflow:visible;enable-background:new    ;" width="612" height="611" xlink:href="DE235743.png"  transform="matrix(0.24 0 0 0.24 1.11 0)">
</image>
<path class="st7" d="M62.3,63.7c1.3,0,2.6,0,3.9,0c0.5,0,0.9-0.2,1.2-0.5c2.4-2.4,4.7-4.9,7.3-7.1c3.1-2.6,6.7-4.7,10.6-6
	c4.5-1.5,9.3-2.1,14-1.9c0.3,0,0.6,0,0.6,0.5c0.2,4.4-0.3,8.7-1.5,12.9c-1.8,5.8-5.2,11-9.6,15.1c-1.3,1.3-2.6,2.6-4,3.9
	c-0.3,0.3-0.4,0.6-0.4,1c0,2.7,0,5.3,0,8c0,0.4-0.1,0.7-0.4,1c-2.4,2.4-4.9,4.8-7.3,7.2c-0.4,0.4-0.7,0.4-1,0
	c-1.5-1.5-3.1-3-4.6-4.5c-0.3-0.3-0.7-0.4-1.1-0.2c-1.3,0.5-2.5,0.9-3.8,1.3c-0.4,0.1-0.7,0.3-1,0.6c-2.5,2.1-5.6,3.3-8.9,3.5
	c-2.1,0.2-4.2,0.1-6.3,0.2c-0.3,0-0.6,0.1-0.6-0.5c0-3.2-0.1-6.3,0.7-9.4c0.5-2.1,1.4-4,2.8-5.6c0.6-0.8,1-1.7,1.2-2.7
	c0.3-0.7,0.5-1.5,0.8-2.2c0.2-0.5,0.1-1.1-0.3-1.4c-1.5-1.5-3-3-4.5-4.6c-0.4-0.4-0.4-0.6,0-0.9c2.4-2.4,4.8-4.9,7.2-7.3
	c0.3-0.3,0.6-0.4,1-0.4C59.5,63.7,60.9,63.7,62.3,63.7z M64,91.4c0.4,0.2,0.8,0.2,1.2,0l6.1-2.1c0.3,0.1,0.4,0.3,0.6,0.4
	c1.3,1.2,2.6,2.5,3.8,3.8c0.4,0.4,0.6,0.4,1,0c1.3-1.3,2.7-2.6,4.1-3.9c0.3-0.3,0.5-0.7,0.5-1.2c0-2.6,0-5.2,0-7.8
	c0-0.3,0-0.7,0.2-1c2.8-2.7,5.6-5.4,8.2-8.4c1.7-1.9,3.1-4.2,4.1-6.6c0.2-0.5,0.4-0.9,0.6-1.4c1.6-3.6,2.4-7.5,2.4-11.4
	c0-0.4-0.1-0.6-0.6-0.6c-4.4,0-8.8,1-12.8,3c-2.5,1.1-4.8,2.5-6.8,4.3c-2.9,2.5-5.5,5.3-8.1,8c-0.3,0.1-0.7,0.2-1,0.2h-7.9
	c-0.3,0-0.7,0.1-0.9,0.3c-1.4,1.5-2.8,2.9-4.2,4.3c-0.3,0.3-0.3,0.5,0,0.8c1.2,1.2,2.4,2.4,3.6,3.6c0.3,0.2,0.5,0.5,0.6,0.8
	c-0.7,2-1.4,4.1-2.1,6.2c-0.2,0.4-0.2,0.8,0,1.2c-1,0.6-1.9,1.5-2.5,2.6c-1.3,2.6-1.8,5.5-1.7,8.4c0,0.4,0.2,0.5,0.6,0.5
	c1.3-0.1,2.6-0.1,3.9-0.3C59.7,94.8,62.3,93.8,64,91.4z"/>
<path class="st8" d="M93.7,64.7c-1,2.4-2.4,4.6-4.1,6.6c-2.6,2.9-5.4,5.6-8.2,8.3c-0.4-0.6-0.6,0-0.8,0.2c-2.9,2.7-5.7,5.5-8.6,8.2
	c-0.2,0.2-0.4,0.5-0.7,0.5L66,83.2c0.4-0.1,0.8-0.3,1.1-0.6c2.4-2.5,4.9-4.9,7.4-7.4c0.7-0.7,0.7-1.3,0.2-1.9
	c-0.5-0.5-1.2-0.5-1.7,0c0,0-0.1,0.1-0.1,0.1c-2.4,2.4-4.8,4.7-7.2,7.1c-0.4,0.4-0.7,0.8-0.9,1.3c-1.8-1.7-3.5-3.4-5.2-5.2
	c0.8-1,1.6-1.9,2.5-2.8c2.1-2.2,4.2-4.4,6.3-6.5c0.2-0.2,0.6-0.4,0.1-0.7c2.7-2.7,5.2-5.5,8.1-8c2-1.8,4.3-3.2,6.8-4.3
	c0,0.3,0.2,0.4,0.4,0.6l9.4,9.4C93.3,64.5,93.3,64.8,93.7,64.7z M85.8,67.2c0-2.8-2.2-5.1-5-5.1c0,0,0,0,0,0c-2.7,0.1-4.9,2.3-5,5
	c0,2.8,2.2,5,5,5.1C83.5,72.2,85.8,70,85.8,67.2L85.8,67.2z"/>
<path class="st9" d="M66,83.2l5.2,5.3c-0.1,0.3-0.2,0.5,0,0.8l-6.1,2.1c-0.4,0.2-0.8,0.2-1.2,0c-0.4-0.6-1-1.2-1.6-1.6
	c-1.3-1.5-2.8-2.9-4.2-4.2c-0.4-0.6-0.9-1.1-1.5-1.5c-0.2-0.4-0.2-0.8,0-1.2c0.7-2.1,1.4-4.1,2.1-6.2c0.2,0.2,0.6,0.2,0.8,0
	c1.7,1.8,3.4,3.5,5.2,5.2C64.9,82.5,65.4,83,66,83.2z"/>
<path class="st10" d="M93.7,64.7c-0.3,0-0.4-0.2-0.6-0.4l-9.4-9.4c-0.2-0.2-0.4-0.3-0.4-0.6c4-2,8.4-3,12.8-3c0.5,0,0.6,0.2,0.6,0.6
	c0,3.9-0.8,7.8-2.4,11.4C94.1,63.8,93.9,64.2,93.7,64.7z"/>
<path class="st11" d="M71.2,89.3c-0.2-0.3-0.1-0.5,0-0.8c0.3,0,0.5-0.3,0.7-0.5c2.9-2.8,5.7-5.5,8.6-8.2c0.2-0.2,0.4-0.7,0.8-0.2
	c-0.1,0.3-0.2,0.7-0.2,1c0,2.6,0,5.2,0,7.8c0,0.4-0.2,0.9-0.5,1.2c-1.4,1.3-2.7,2.6-4.1,3.9c-0.4,0.4-0.6,0.4-1,0
	c-1.2-1.3-2.6-2.5-3.8-3.8C71.7,89.5,71.5,89.3,71.2,89.3z"/>
<path class="st11" d="M59.5,76.7c-0.2,0.2-0.6,0.2-0.8,0c-0.2-0.3-0.4-0.6-0.6-0.8c-1.2-1.2-2.4-2.4-3.6-3.6c-0.3-0.3-0.4-0.5,0-0.8
	c1.4-1.4,2.8-2.9,4.2-4.3c0.2-0.2,0.6-0.3,0.9-0.3h7.8c0.3,0,0.7,0,1-0.2c0.6,0.3,0.1,0.5-0.1,0.7c-2.1,2.2-4.2,4.3-6.3,6.5
	C61.1,74.8,60.2,75.7,59.5,76.7z"/>
<path class="st4" d="M62.4,89.8c0.6,0.5,1.1,1,1.6,1.6c-1.7,2.5-4.2,3.4-7.1,3.9c-1.3,0.2-2.6,0.2-3.9,0.3c-0.4,0-0.6-0.1-0.6-0.5
	c-0.1-2.9,0.5-5.8,1.7-8.4c0.6-1,1.5-1.9,2.5-2.6c0.6,0.4,1.1,0.9,1.5,1.5c-1.8,1.6-2.3,3.8-2.6,6.1c-0.1,0.7,0.2,0.8,0.8,0.7
	c1.4-0.1,2.7-0.5,4-1C61.2,91.1,61.9,90.5,62.4,89.8z"/>
<path class="st12" d="M85.8,67.2c0,2.8-2.3,5-5.1,5c-2.8,0-5-2.3-5-5.1l0,0c0.1-2.7,2.3-4.9,5-5C83.5,62.2,85.8,64.5,85.8,67.2z
	 M80.8,63.7c-1.9,0-3.5,1.5-3.5,3.4c0,0,0,0,0,0.1c-0.1,1.8,1.3,3.4,3.1,3.5c0.1,0,0.2,0,0.4,0c1.9,0.1,3.5-1.4,3.5-3.3
	c0-0.1,0-0.1,0-0.2C84.3,65.3,82.7,63.7,80.8,63.7L80.8,63.7z"/>
<path class="st11" d="M66,83.2c-0.7-0.1-1.2-0.7-1.3-1.3c0.2-0.5,0.5-0.9,0.9-1.3c2.4-2.4,4.8-4.8,7.2-7.1c0.4-0.5,1.1-0.6,1.7-0.2
	c0,0,0.1,0.1,0.1,0.1c0.5,0.6,0.5,1.2-0.2,1.9c-2.4,2.5-4.9,4.9-7.4,7.4C66.8,82.9,66.4,83.1,66,83.2z"/>
<path class="st13" d="M62.4,89.8c-0.5,0.8-1.2,1.3-2.1,1.6c-1.3,0.5-2.6,0.9-4,1c-0.6,0.1-0.9,0-0.8-0.7c0.2-2.3,0.7-4.5,2.6-6.2
	C59.6,86.8,61.1,88.3,62.4,89.8z"/>
<path class="st14" d="M80.8,63.7c1.9,0,3.5,1.5,3.6,3.5c0,1.9-1.5,3.5-3.4,3.5c-0.1,0-0.1,0-0.2,0c-1.8,0.1-3.4-1.3-3.5-3.2
	c0-0.1,0-0.2,0-0.4C77.3,65.3,78.8,63.7,80.8,63.7C80.7,63.7,80.8,63.7,80.8,63.7z"/>
<path class="st15" d="M0,123.7h3.6v4l-0.4-0.2c0.1-1.2,0.7-2.2,1.6-3c0.4-0.4,0.9-0.6,1.4-0.8c0.5-0.2,1-0.3,1.5-0.3
	c0.7,0,1.5,0.1,2.2,0.4c0.7,0.3,1.3,0.7,1.8,1.2l-1.5,2.9l-0.1,0.2l-0.3-0.1c-0.1-0.2-0.1-0.3-0.2-0.5c-0.1-0.2-0.3-0.4-0.5-0.6
	c-0.3-0.2-0.6-0.4-0.9-0.5c-0.3-0.1-0.7-0.2-1-0.2c-0.5,0-1,0.1-1.4,0.2c-0.4,0.2-0.9,0.4-1.2,0.8c-0.4,0.4-0.6,0.8-0.8,1.3
	c-0.2,0.6-0.3,1.2-0.3,1.9v7.4H0V123.7z"/>
<path class="st15" d="M20.4,138.1c-1.2,0-2.4-0.3-3.5-0.9c-1-0.6-1.9-1.5-2.5-2.6c-0.6-1.2-0.9-2.5-0.9-3.8c0-1.3,0.3-2.6,0.9-3.7
	c0.6-1.1,1.4-2,2.5-2.6c2.2-1.3,4.8-1.3,7,0c1,0.6,1.9,1.6,2.4,2.6c0.6,1.1,0.9,2.4,0.9,3.7c0,1.3-0.3,2.7-0.9,3.8
	c-0.6,1.1-1.4,2-2.5,2.6C22.8,137.8,21.6,138.1,20.4,138.1z M20.4,135.3c0.6,0,1.3-0.2,1.8-0.6c0.5-0.4,1-1,1.2-1.6
	c0.3-0.7,0.5-1.6,0.5-2.4c0-0.8-0.1-1.6-0.5-2.4c-0.3-0.6-0.7-1.1-1.2-1.6c-0.5-0.4-1.1-0.6-1.8-0.6c-0.6,0-1.2,0.2-1.7,0.6
	c-0.5,0.4-0.9,0.9-1.2,1.6c-0.6,1.5-0.6,3.2,0,4.8c0.2,0.6,0.7,1.2,1.2,1.6C19.2,135.1,19.8,135.3,20.4,135.3z"/>
<path class="st15" d="M33.8,137.6c-0.9-0.3-1.7-0.9-2.3-1.5c-0.7-0.6-1.2-1.4-1.6-2.3c-0.7-1.9-0.7-3.9,0-5.8
	c0.4-0.9,0.9-1.7,1.6-2.4c0.7-0.7,1.5-1.2,2.3-1.6c0.9-0.4,1.9-0.6,3-0.6c1.2,0,2.4,0.2,3.5,0.7c0.9,0.4,1.8,1.1,2.3,2l-1.9,2.3
	l-0.2,0.2l-0.2-0.2c0-0.2,0-0.3-0.1-0.5c-0.1-0.2-0.2-0.5-0.4-0.6c-0.4-0.4-0.8-0.6-1.3-0.8c-0.5-0.1-1.1-0.2-1.6-0.2
	c-0.5,0-1,0.1-1.5,0.3c-1,0.5-1.8,1.3-2.1,2.3c-0.2,0.6-0.3,1.3-0.3,2c0,0.6,0.1,1.2,0.3,1.8c0.2,0.5,0.5,1,0.9,1.4
	c0.4,0.4,0.8,0.7,1.3,0.9c0.5,0.2,1,0.3,1.5,0.3c0.4,0,0.9-0.1,1.3-0.2c0.4-0.1,0.8-0.3,1.2-0.6c0.4-0.3,0.8-0.6,1.1-1l2,2.2
	c-0.7,0.8-1.6,1.5-2.7,1.8c-1,0.4-2,0.6-3,0.6C35.8,138.2,34.8,138,33.8,137.6z"/>
<path class="st15" d="M49.9,131.4l-1.1,1.1v5.3h-3.6v-20.5H49v0.3c-0.1,0.1-0.2,0.3-0.2,0.4c0,0.2,0,0.5,0,0.7v10.1l5.5-5.3l0.5,0.1
	l0.6,0.1h0.6h0.5h1.7l-5.7,5.5l6.5,8.6l-4,0.2L49.9,131.4z"/>
<path class="st15" d="M67.3,138.1c-1,0-1.9-0.2-2.8-0.5c-0.9-0.3-1.6-0.8-2.3-1.4c-0.7-0.6-1.2-1.4-1.5-2.3c-0.4-1-0.5-2-0.5-3.1
	c0-1.1,0.2-2.1,0.5-3.1c0.3-0.9,0.8-1.7,1.5-2.3c0.6-0.6,1.3-1.1,2.2-1.5c0.8-0.3,1.7-0.5,2.7-0.5c0.8,0,1.6,0.1,2.4,0.4
	c0.8,0.3,1.4,0.7,2,1.3c0.6,0.6,1.1,1.4,1.3,2.2c0.4,1,0.5,2,0.5,3c0,0.2,0,0.4,0,0.7c0,0.3,0,0.5,0,0.7h-9.6c0,0.6,0.2,1.1,0.4,1.6
	c0.2,0.4,0.5,0.8,0.9,1.1c0.4,0.3,0.8,0.5,1.2,0.7c0.5,0.1,0.9,0.2,1.4,0.2c0.4,0,0.8,0,1.2-0.1c0.4-0.1,0.8-0.2,1.1-0.4
	c0.4-0.2,0.7-0.5,1-0.8l1.8,1.7c-0.4,0.5-1,1-1.5,1.3c-0.6,0.4-1.2,0.6-1.8,0.8C68.7,138,68,138.1,67.3,138.1z M63.6,129.1h6.1
	c0-0.4-0.1-0.9-0.2-1.3c-0.1-0.4-0.3-0.7-0.6-0.9c-0.3-0.3-0.6-0.5-0.9-0.6c-0.4-0.1-0.8-0.2-1.2-0.2c-0.4,0-0.8,0.1-1.1,0.2
	c-0.4,0.1-0.7,0.3-1,0.5c-0.3,0.3-0.5,0.6-0.7,0.9C63.8,128.2,63.7,128.7,63.6,129.1L63.6,129.1z"/>
<path class="st15" d="M76.3,123.7h11v2.8H76.2L76.3,123.7z M81.6,137.7c-0.6-0.3-1.1-0.7-1.5-1.3c-0.4-0.7-0.7-1.5-0.9-2.3
	c-0.2-1.2-0.2-2.4-0.2-3.6l0.4-10.2l3.6-0.4h0.3v0.3l-0.2,0.4c-0.1,0.2-0.2,0.5-0.2,0.7l-0.3,4.2l0.2,0.2l-0.2,4.7c-0.1,1,0,2,0.1,3
	c0.1,0.6,0.3,1.1,0.7,1.5c0.3,0.3,0.7,0.4,1.2,0.4c0.6,0,1.2-0.1,1.8-0.4c0.5-0.3,1-0.6,1.5-0.9l0.7,2.5c-0.7,0.5-1.4,0.9-2.2,1.2
	c-0.8,0.3-1.7,0.4-2.6,0.4C82.9,138.2,82.2,138,81.6,137.7L81.6,137.7z"/>
<path class="st15" d="M95.6,137.6c-0.9-0.3-1.7-0.9-2.3-1.5c-0.7-0.6-1.2-1.4-1.6-2.3c-0.7-1.9-0.7-3.9,0-5.8
	c0.4-0.9,0.9-1.7,1.6-2.4c0.7-0.7,1.5-1.2,2.3-1.6c0.9-0.4,1.9-0.6,2.9-0.6c1.2,0,2.4,0.2,3.5,0.7c0.9,0.4,1.8,1.1,2.3,2l-2,2.2
	l-0.2,0.2l-0.2-0.2c0-0.2,0-0.3-0.1-0.5c-0.1-0.2-0.2-0.5-0.4-0.6c-0.4-0.4-0.8-0.6-1.3-0.8c-0.5-0.1-1.1-0.2-1.6-0.2
	c-0.5,0-1,0.1-1.5,0.3c-1,0.5-1.8,1.3-2.1,2.3c-0.2,0.6-0.3,1.3-0.3,2c0,0.6,0.1,1.2,0.3,1.8c0.2,0.5,0.5,1,0.9,1.4
	c0.4,0.4,0.8,0.7,1.3,0.9c0.5,0.2,1,0.3,1.5,0.3c0.4,0,0.9-0.1,1.3-0.2c0.4-0.1,0.8-0.3,1.2-0.6c0.4-0.3,0.8-0.6,1.1-1l2,2.2
	c-0.7,0.8-1.6,1.5-2.7,1.8c-1,0.4-2,0.6-3.1,0.6C97.5,138.2,96.5,138,95.6,137.6z"/>
<path class="st15" d="M108.1,123.7h3.6v4l-0.4-0.2c0.1-0.6,0.2-1.2,0.5-1.7c0.3-0.5,0.6-0.9,1.1-1.3c0.8-0.7,1.8-1.1,2.9-1.1
	c0.7,0,1.5,0.1,2.2,0.4c0.7,0.3,1.3,0.7,1.8,1.2l-1.4,3l-0.1,0.2l-0.3-0.1c-0.1-0.2-0.1-0.3-0.2-0.5c-0.1-0.2-0.3-0.4-0.5-0.6
	c-0.3-0.2-0.6-0.4-0.9-0.5c-0.3-0.1-0.7-0.2-1-0.2c-0.5,0-1,0.1-1.4,0.2c-0.4,0.2-0.9,0.4-1.2,0.8c-0.4,0.4-0.6,0.8-0.8,1.3
	c-0.2,0.6-0.3,1.2-0.3,1.9v7.4h-3.6L108.1,123.7z"/>
<path class="st15" d="M126.9,138.1c-1.3,0.1-2.6-0.3-3.7-1.1c-0.9-0.7-1.4-1.8-1.3-2.9c0-0.7,0.2-1.4,0.5-2.1
	c0.4-0.7,0.9-1.2,1.5-1.6c0.8-0.5,1.6-0.9,2.5-1.1c1.1-0.3,2.3-0.4,3.5-0.4h1.4c0.3,0,0.5,0,0.8,0.1l0.1,2.4h-0.7h-0.9h-0.8
	c-0.7,0-1.4,0-2.1,0.2c-0.5,0.1-0.9,0.3-1.4,0.5c-0.3,0.2-0.6,0.4-0.8,0.7c-0.2,0.3-0.3,0.6-0.2,0.9c0,0.3,0.1,0.6,0.2,0.8
	c0.1,0.2,0.3,0.4,0.5,0.5c0.2,0.1,0.4,0.2,0.7,0.3c0.3,0.1,0.6,0.1,0.9,0.1c0.6,0,1.1-0.1,1.6-0.3c0.5-0.2,0.9-0.5,1.2-0.9
	c0.3-0.5,0.6-1,0.7-1.6c0.2-0.7,0.2-1.5,0.2-2.2c0-0.9-0.1-1.8-0.4-2.6c-0.2-0.6-0.6-1-1.1-1.3c-0.6-0.3-1.2-0.4-1.8-0.4
	c-0.6,0-1.3,0.1-1.9,0.3c-0.7,0.3-1.2,0.7-1.7,1.2l-1.9-2.1c0.8-0.7,1.7-1.3,2.7-1.6c1-0.3,2-0.5,3-0.5c0.9,0,1.7,0.1,2.5,0.3
	c0.7,0.2,1.4,0.5,2.1,1c0.6,0.5,1.1,1.2,1.4,1.9c0.4,1,0.5,2,0.5,3v8.1h-3.6v-1.7c-0.3,0.3-0.5,0.6-0.9,0.9c-0.3,0.2-0.6,0.4-1,0.6
	c-0.4,0.1-0.7,0.3-1.1,0.3C127.8,138.1,127.3,138.1,126.9,138.1z"/>
<path class="st15" d="M143.4,137.9c-0.5-0.1-0.9-0.4-1.3-0.7c-0.4-0.3-0.8-0.7-1.1-1.1l-0.6,1.7h-2.6v-20.5h3.8v0.3
	c-0.1,0.1-0.2,0.2-0.2,0.4c0,0.2,0,0.5,0,0.8v6.6c0.2-0.3,0.5-0.6,0.7-0.8c0.5-0.5,1.2-0.8,1.9-1c0.4-0.1,0.7-0.1,1.1-0.1
	c0.8,0,1.6,0.1,2.4,0.4c0.7,0.3,1.3,0.8,1.8,1.3c0.5,0.6,0.9,1.4,1.1,2.1c0.3,1,0.4,2,0.4,3.1c0,1.1-0.1,2.3-0.5,3.4
	c-0.3,0.9-0.7,1.7-1.3,2.4c-0.5,0.6-1.2,1.1-1.9,1.4c-0.7,0.3-1.5,0.5-2.3,0.5C144.3,138.1,143.8,138,143.4,137.9z M145.4,135.1
	c0.4-0.2,0.7-0.4,1-0.8c0.3-0.4,0.6-0.9,0.7-1.4c0.2-0.7,0.3-1.4,0.2-2.1c0-0.7-0.1-1.3-0.2-2c-0.1-0.5-0.3-1-0.6-1.5
	c-0.3-0.4-0.6-0.7-1-0.9c-0.4-0.2-0.9-0.3-1.3-0.3c-0.6,0-1.1,0.2-1.6,0.6c-0.5,0.4-0.8,1-1,1.6c-0.2,0.8-0.4,1.6-0.4,2.5
	c0,0.7,0,1.3,0.2,2c0.1,0.5,0.3,1,0.5,1.5c0.4,0.8,1.3,1.3,2.2,1.2C144.5,135.4,144.9,135.3,145.4,135.1z"/>
<path class="st15" d="M159.1,138.1c-0.6,0-1.3-0.2-1.7-0.7c-0.9-0.9-1-2.4-0.1-3.3c0.5-0.5,1.1-0.7,1.8-0.7c1.3,0,2.3,1,2.4,2.3
	c0,0.7-0.3,1.3-0.7,1.7C160.2,137.8,159.7,138.1,159.1,138.1z"/>
<path class="st15" d="M172.8,137.6c-0.9-0.3-1.7-0.9-2.3-1.5c-0.7-0.6-1.2-1.4-1.6-2.3c-0.7-1.9-0.7-3.9,0-5.8
	c0.4-0.9,0.9-1.7,1.6-2.4c0.7-0.7,1.5-1.2,2.3-1.6c0.9-0.4,1.9-0.6,2.9-0.6c1.2,0,2.4,0.2,3.5,0.7c0.9,0.4,1.8,1.1,2.4,2l-1.9,2.2
	l-0.2,0.2l-0.2-0.2c0-0.2,0-0.3-0.1-0.5c-0.1-0.2-0.2-0.5-0.4-0.6c-0.4-0.4-0.8-0.6-1.3-0.8c-0.5-0.1-1.1-0.2-1.6-0.2
	c-0.5,0-1,0.1-1.5,0.3c-0.5,0.2-0.9,0.5-1.2,0.9c-0.4,0.4-0.7,0.9-0.9,1.4c-0.2,0.6-0.3,1.3-0.3,2c0,0.6,0.1,1.2,0.3,1.8
	c0.2,0.5,0.5,1,0.9,1.4c0.4,0.4,0.8,0.7,1.3,0.9c0.5,0.2,1,0.3,1.5,0.3c0.4,0,0.9-0.1,1.3-0.2c0.4-0.1,0.8-0.3,1.2-0.6
	c0.4-0.3,0.8-0.6,1.1-1l1.9,2.2c-0.7,0.8-1.6,1.5-2.7,1.8c-1,0.4-2,0.6-3.1,0.6C174.7,138.2,173.7,138,172.8,137.6z"/>
<path class="st15" d="M190.2,138.1c-2.5,0-4.8-1.3-5.9-3.5c-0.6-1.2-0.9-2.5-0.9-3.8c0-1.3,0.3-2.6,0.9-3.7c0.6-1.1,1.4-2,2.5-2.6
	c1-0.7,2.2-1,3.5-1c1.2,0,2.5,0.3,3.5,1c1,0.6,1.9,1.5,2.5,2.6c0.6,1.2,0.9,2.4,0.9,3.7c0,1.3-0.3,2.7-0.9,3.8
	C195.1,136.8,192.7,138.2,190.2,138.1L190.2,138.1z M190.2,135.3c0.6,0,1.3-0.2,1.8-0.6c0.5-0.4,0.9-1,1.2-1.6
	c0.3-0.7,0.5-1.6,0.4-2.4c0-0.8-0.1-1.7-0.4-2.4c-0.3-0.6-0.7-1.1-1.2-1.6c-0.5-0.4-1.1-0.6-1.8-0.6c-0.6,0-1.2,0.2-1.7,0.6
	c-0.5,0.4-1,1-1.2,1.6c-0.6,1.5-0.6,3.2,0,4.8c0.2,0.6,0.7,1.2,1.2,1.6C189,135.1,189.6,135.3,190.2,135.3z"/>
<path class="st15" d="M198.9,137.9v-14.1h2.9v1.1c0.2-0.3,0.5-0.6,0.8-0.8c0.3-0.2,0.5-0.4,0.9-0.4c0.3-0.1,0.6-0.2,0.9-0.2
	c0.3,0,0.7,0.1,1,0.2c0.3,0.1,0.6,0.3,0.9,0.6c0.3,0.3,0.5,0.6,0.6,1c0.2-0.4,0.5-0.7,0.8-1c0.3-0.3,0.6-0.5,1-0.6
	c0.4-0.1,0.8-0.2,1.2-0.2c0.5,0,0.9,0.1,1.4,0.3c0.4,0.2,0.7,0.5,0.9,0.8c0.3,0.4,0.4,0.8,0.5,1.3c0.1,0.6,0.2,1.1,0.1,1.7v10.4h-3
	v-9.6c0-0.5,0-0.9-0.1-1.4c0-0.2-0.1-0.5-0.3-0.7c-0.1-0.1-0.3-0.2-0.5-0.2c-0.3,0-0.6,0.2-0.8,0.4c-0.3,0.3-0.5,0.6-0.6,1
	c-0.2,0.5-0.2,1-0.2,1.5v9h-2.8v-9.5c0-0.7,0-1.3-0.2-1.9c-0.1-0.3-0.5-0.5-0.8-0.5c-0.2,0-0.4,0.1-0.5,0.2
	c-0.2,0.1-0.4,0.3-0.5,0.5c-0.1,0.3-0.3,0.6-0.3,0.9c-0.1,0.4-0.1,0.8-0.1,1.2v9.2L198.9,137.9z"/>
</svg>
